# Blender 3.1.2
# www.blender.org
mtllib book.mtl
o Architexture_Plane
v -0.038833 0.500000 -0.030118
v -0.045296 0.500000 -0.000000
v -0.045296 -0.500000 0.000000
v -0.038833 -0.500000 -0.030118
v -0.772673 0.500000 -0.090355
v -0.085094 0.500000 -0.090355
v -0.085094 -0.500000 -0.090355
v -0.772673 -0.500000 -0.090355
v -0.085085 0.500000 -0.000000
v -0.772436 0.500000 -0.000000
v -0.772436 -0.500000 0.000000
v -0.085085 -0.500000 0.000000
v -0.079034 -0.500000 -0.012099
v -0.086181 -0.500000 -0.010605
v -0.088749 -0.487219 -0.011489
v -0.081785 -0.487219 -0.012944
v -0.062768 0.500000 -0.090355
v -0.045296 0.500000 -0.090355
v -0.045296 -0.500000 -0.090355
v -0.062768 -0.500000 -0.090355
v -0.062758 0.500000 -0.000000
v -0.062758 -0.500000 0.000000
v -0.061662 0.500000 -0.010605
v -0.053867 0.500000 -0.010605
v -0.053754 0.487219 -0.011489
v -0.064857 0.487219 -0.011489
v -0.068818 -0.500000 -0.078256
v -0.061671 -0.500000 -0.079749
v -0.064866 -0.487219 -0.078866
v -0.071830 -0.487219 -0.077410
v -0.069914 0.500000 -0.088861
v -0.069914 -0.500000 -0.088861
v -0.077947 -0.500000 -0.088861
v -0.077947 0.500000 -0.088861
v -0.053867 0.500000 -0.079749
v -0.061671 0.500000 -0.079749
v -0.064866 0.487219 -0.078866
v -0.053754 0.487219 -0.078866
v -0.079043 0.500000 -0.078256
v -0.086190 0.500000 -0.079749
v -0.088758 0.487219 -0.078866
v -0.081794 0.487219 -0.077410
v -0.772450 -0.500000 -0.010605
v -0.772450 0.500000 -0.010605
v -0.757476 0.487219 -0.011489
v -0.757476 -0.487219 -0.011489
v -0.772659 0.500000 -0.079749
v -0.757680 0.487219 -0.078866
v -0.077938 -0.500000 -0.001494
v -0.077938 0.500000 -0.001494
v -0.069905 0.500000 -0.001494
v -0.069905 -0.500000 -0.001494
v -0.068809 0.500000 -0.012099
v -0.071821 0.487219 -0.012944
v -0.049438 0.500000 -0.031243
v -0.049438 0.487219 -0.031600
v -0.079043 -0.500000 -0.078256
v -0.081794 -0.487219 -0.077410
v -0.079034 0.500000 -0.012099
v -0.081785 0.487219 -0.012944
v -0.772659 -0.500000 -0.079749
v -0.086190 -0.500000 -0.079749
v -0.088758 -0.487219 -0.078866
v -0.757680 -0.487219 -0.078866
v -0.049438 -0.500000 -0.031243
v -0.053867 -0.500000 -0.010605
v -0.053754 -0.487219 -0.011489
v -0.049438 -0.487219 -0.031600
v -0.068818 0.500000 -0.078256
v -0.071830 0.487219 -0.077410
v -0.061662 -0.500000 -0.010605
v -0.064857 -0.487219 -0.011489
v -0.068809 -0.500000 -0.012099
v -0.071821 -0.487219 -0.012944
v -0.086181 0.500000 -0.010605
v -0.088749 0.487219 -0.011489
v -0.053867 -0.500000 -0.079749
v -0.049438 -0.500000 -0.059111
v -0.049438 -0.487219 -0.058755
v -0.053754 -0.487219 -0.078866
v -0.049438 0.500000 -0.059111
v -0.049438 0.487219 -0.058755
v -0.038833 0.500000 -0.060236
v -0.038833 -0.500000 -0.060236
v -0.087687 0.487219 -0.059852
v -0.757616 0.487219 -0.059851
v -0.065931 0.487219 -0.059852
v -0.065928 -0.487219 -0.030503
v -0.757539 -0.487219 -0.030503
v -0.757539 0.487219 -0.030503
v -0.087684 -0.487219 -0.030503
v -0.065928 0.487219 -0.030503
v -0.072892 0.487219 -0.030988
v -0.080723 -0.487219 -0.059366
v -0.072895 -0.487219 -0.059366
v -0.080720 0.487219 -0.030988
v -0.087687 -0.487219 -0.059852
v -0.072892 -0.487219 -0.030988
v -0.087684 0.487219 -0.030503
v -0.072895 0.487219 -0.059366
v -0.080723 0.487219 -0.059366
v -0.065931 -0.487219 -0.059852
v -0.080720 -0.487219 -0.030988
v -0.757616 -0.487219 -0.059851
vn 0.9777 -0.0000 0.2098
vn -0.0000 -0.0000 -1.0000
vn -0.0000 -0.0000 1.0000
vn -0.2034 -0.1081 -0.9731
vn -0.0000 0.0690 -0.9976
vn 0.2045 -0.0165 0.9787
vn -0.0000 0.0689 0.9976
vn -0.2034 0.1081 0.9731
vn -0.0589 -0.0000 -0.9983
vn -0.2046 -0.0000 -0.9788
vn 0.2046 -0.0000 -0.9788
vn 0.2046 -0.0000 0.9788
vn -0.2046 -0.0000 0.9788
vn 0.2045 0.0165 -0.9787
vn -0.9777 0.0059 -0.2098
vn -0.0000 -0.0660 0.9978
vn -0.0000 0.0660 -0.9978
vn -0.0000 -0.0689 0.9976
vn -0.9777 -0.0059 -0.2098
vn -0.0000 0.0660 0.9978
vn -0.2034 -0.1081 0.9731
vn -0.0000 -0.0690 -0.9976
vn 0.2045 -0.0165 -0.9787
vn -0.0588 -0.0000 0.9983
vn -0.2034 0.1081 -0.9731
vn -0.9777 -0.0058 0.2098
vn 0.2045 0.0165 0.9787
vn -0.9777 0.0058 0.2098
vn 0.9777 -0.0000 -0.2098
vn 1.0000 -0.0000 -0.0000
vn -0.0000 -0.0660 -0.9978
vn -1.0000 -0.0000 0.0013
vn -0.0000 -1.0000 -0.0000
vn -0.0000 1.0000 -0.0000
vn -1.0000 -0.0000 -0.0000
vn -1.0000 -0.0000 0.0030
vn -1.0000 -0.0000 0.0033
vn -1.0000 -0.0000 0.0034
vt 0.509825 0.000000
vt 0.313889 0.000000
vt 0.529320 0.000000
vt 0.470833 0.000000
vt 0.529320 1.000000
vt 1.000000 1.000000
vt 0.509825 1.000000
vt 0.843107 1.000000
vt 0.000000 1.000000
vt 0.000000 0.000000
vt 0.445072 0.000000
vt 0.000000 0.000000
vt 0.445072 1.000000
vt 0.526120 1.000000
vt 0.000000 1.000000
vt 0.000000 0.000000
vt 0.470833 1.000000
vt 0.555075 0.000000
vt 0.474034 0.000000
vt 1.000000 0.000000
vt 0.000000 0.000000
vt 0.529320 0.000000
vt 1.000000 1.000000
vt 1.000000 0.000000
vt 0.000000 0.000000
vt 0.555075 1.000000
vt 0.945281 0.945281
vt 0.901378 0.959295
vt 0.894361 0.950458
vt 0.894361 0.950458
vt 0.901378 0.959295
vt 0.459524 0.000000
vt 0.000000 0.000000
vt 0.470833 0.000000
vt 0.000000 0.000000
vt 0.470833 1.000000
vt 0.529320 1.000000
vt 0.459524 1.000000
vt 0.527915 1.000000
vt 0.540624 0.000000
vt 0.472238 0.000000
vt 0.540624 1.000000
vt 0.975985 0.975985
vt 0.416273 0.000000
vt 0.416242 0.000000
vt 0.416242 0.000000
vt 0.416273 0.000000
vt 0.581303 0.996059
vt 0.581186 0.997326
vt 0.581186 0.997326
vt 0.581303 0.996059
vt 0.454898 0.000000
vt 0.000000 0.000000
vt 0.454898 1.000000
vt 0.527341 1.000000
vt 0.449698 1.000000
vt 0.526695 1.000000
vt 0.449698 0.000000
vt 0.000000 0.000000
vt 0.055358 0.000000
vt 0.055881 0.000000
vt 0.055881 0.000000
vt 0.055358 0.000000
vt 0.057937 0.000000
vt 0.056116 0.000000
vt 0.056116 0.000000
vt 0.057937 0.000000
vt 0.882626 0.000000
vt 0.055280 0.117391
vt 0.000000 0.117374
vt 0.467190 0.000000
vt 0.000000 0.117374
vt 0.467190 0.000000
vt 0.882626 0.000000
vt 0.055280 0.117391
vt 0.000000 0.882626
vt 0.062129 0.000000
vt 0.062129 0.000000
vt 0.000000 0.882626
vt 0.550449 1.000000
vt 0.955109 0.955109
vt 0.550449 0.000000
vt 0.473459 0.000000
vt 0.545250 0.000000
vt 0.472813 0.000000
vt 0.545250 1.000000
vt 0.966156 0.966156
vt 0.414890 0.000000
vt 0.414890 0.000000
vt 0.308436 0.000000
vt 0.308436 0.000000
vt 0.578832 0.994308
vt 0.578832 0.994308
vt 0.415611 0.000000
vt 0.415611 0.000000
vt 0.117374 0.000000
vt 0.415565 0.882622
vt 0.575445 0.993316
vt 0.575445 0.993316
vt 0.415565 0.882622
vt 0.117374 0.000000
vt 0.830023 0.992994
vt 0.933154 0.988495
vt 0.933154 0.988495
vt 0.830023 0.992994
vt 0.057833 0.000000
vt 0.057833 0.000000
vt 0.924213 0.980076
vt 0.924213 0.980076
vt 0.913791 0.971606
vt 0.913791 0.971606
vt 0.418007 0.000000
vt 0.418007 0.000000
vt 0.582277 0.998384
vt 0.687958 0.996294
vt 0.687958 0.996294
vt 0.582277 0.998384
vt 0.163024 0.000000
vt 0.163024 0.000000
vt 0.490329 0.000000
vt 0.156944 0.000000
vt 0.490329 1.000000
vt 0.686213 1.000000
vt 0.158011 0.000000
vt 0.000000 0.666667
vt 0.176440 0.000000
vt 0.157413 0.000000
vt 0.826628 0.983990
vt 0.156944 0.333333
vt 0.666667 0.000000
vt 0.000000 0.333333
vt 0.352880 0.000000
vt 0.805560 0.963520
vt 0.314825 0.000000
vt 0.315208 0.000000
vt 0.669500 0.985036
vt 0.673613 0.988719
vt 0.315639 0.000000
vt 0.665840 0.981760
vt 0.819884 0.977437
vt 0.316022 0.000000
vt 0.157604 0.000000
vt 0.157820 0.000000
vt 0.677272 0.991995
vt 0.812304 0.970073
vt 0.313889 0.666667
vt 0.333333 0.000000
s 1
usemtl Architexture
f 1/1/1 2/3/1 3/5/1 4/7/1
f 5/10/2 6/11/2 7/13/2 8/15/2
f 9/18/3 10/20/3 11/23/3 12/26/3
f 13/28/4 14/29/4 15/30/4 16/31/4
f 17/32/2 18/34/2 19/36/2 20/38/2
f 2/3/3 21/40/3 22/42/3 3/5/3
f 23/44/5 24/45/5 25/46/5 26/47/5
f 27/48/6 28/49/6 29/50/6 30/51/6
f 31/52/2 32/54/2 33/56/2 34/58/2
f 35/60/7 36/61/7 37/62/7 38/63/7
f 39/64/8 40/65/8 41/66/8 42/67/8
f 43/68/9 44/70/9 45/72/9 46/74/9
f 40/65/7 47/77/7 48/78/7 41/66/7
f 17/32/10 20/38/10 32/54/10 31/52/10
f 7/13/11 6/11/11 34/58/11 33/56/11
f 9/18/12 12/26/12 49/80/12 50/82/12
f 22/42/13 21/40/13 51/84/13 52/86/13
f 50/82/3 49/80/3 52/86/3 51/84/3
f 53/88/14 23/44/14 26/47/14 54/89/14
f 24/45/15 55/90/15 56/91/15 25/46/15
f 57/92/16 27/48/16 30/51/16 58/93/16
f 59/94/17 53/88/17 54/89/17 60/95/17
f 61/97/18 62/98/18 63/99/18 64/100/18
f 65/102/19 66/103/19 67/104/19 68/105/19
f 69/106/20 39/64/20 42/67/20 70/107/20
f 62/98/21 57/92/21 58/93/21 63/99/21
f 66/103/22 71/108/22 72/109/22 67/104/22
f 71/108/23 73/110/23 74/111/23 72/109/23
f 47/76/24 61/96/24 64/101/24 48/79/24
f 44/71/5 75/112/5 76/113/5 45/73/5
f 75/112/25 59/94/25 60/95/25 76/113/25
f 77/114/26 78/115/26 79/116/26 80/117/26
f 14/29/22 43/69/22 46/75/22 15/30/22
f 36/61/27 69/106/27 70/107/27 37/62/27
f 81/118/28 35/60/28 38/63/28 82/119/28
f 28/49/18 77/114/18 80/117/18 29/50/18
f 18/34/29 83/120/29 84/122/29 19/36/29
f 83/120/30 1/1/30 4/7/30 84/122/30
f 73/110/31 13/28/31 16/31/31 74/111/31
f 61/96/32 47/76/32 5/9/32 8/16/32
f 44/70/32 43/68/32 11/24/32 10/21/32
f 78/115/33 77/114/33 19/37/33 84/123/33
f 55/90/34 24/45/34 2/4/34 1/2/34
f 35/60/34 81/118/34 83/121/34 18/35/34
f 65/102/33 78/115/33 84/123/33 4/8/33
f 81/118/34 55/90/34 1/2/34 83/121/34
f 66/103/33 65/102/33 4/8/33 3/6/33
f 14/29/33 13/28/33 49/81/33 12/27/33
f 57/92/33 62/98/33 7/14/33 33/57/33
f 28/49/33 27/48/33 32/55/33 20/39/33
f 73/110/33 71/108/33 22/43/33 52/87/33
f 40/65/34 39/64/34 34/59/34 6/12/34
f 59/94/34 75/112/34 9/19/34 50/83/34
f 23/44/34 53/88/34 51/85/34 21/41/34
f 69/106/34 36/61/34 17/33/34 31/53/34
f 53/88/34 59/94/34 50/83/34 51/85/34
f 13/28/33 73/110/33 52/87/33 49/81/33
f 39/64/34 69/106/34 31/53/34 34/59/34
f 24/45/34 23/44/34 21/41/34 2/4/34
f 71/108/33 66/103/33 3/6/33 22/43/33
f 36/61/34 35/60/34 18/35/34 17/33/34
f 75/112/34 44/71/34 10/22/34 9/19/34
f 47/77/34 40/65/34 6/12/34 5/10/34
f 43/69/33 14/29/33 12/27/33 11/25/33
f 27/48/33 57/92/33 33/57/33 32/55/33
f 77/114/33 28/49/33 20/39/33 19/37/33
f 62/98/33 61/97/33 8/17/33 7/14/33
usemtl Bookpage
f 78/115/35 65/102/35 68/105/35 79/116/35
f 55/90/35 81/118/35 82/119/35 56/91/35
f 85/124/34 41/66/34 48/78/34 86/126/34
f 82/119/34 38/63/34 37/62/34 87/127/34
f 68/105/33 67/104/33 72/109/33 88/128/33
f 89/130/36 46/74/37 45/72/37 90/131/36
f 91/133/33 15/30/33 46/75/33 89/129/33
f 26/47/34 92/134/34 93/135/34 54/89/34
f 94/136/33 58/93/33 30/51/33 95/137/33
f 96/138/34 60/95/34 54/89/34 93/135/34
f 97/139/33 63/99/33 58/93/33 94/136/33
f 88/128/33 72/109/33 74/111/33 98/140/33
f 99/141/34 76/113/34 60/95/34 96/138/34
f 87/127/34 37/62/34 70/107/34 100/142/34
f 92/134/34 87/127/34 100/142/34 93/135/34
f 41/66/34 85/124/34 101/143/34 42/67/34
f 85/124/34 99/141/34 96/138/34 101/143/34
f 29/50/33 102/144/33 95/137/33 30/51/33
f 102/144/33 88/128/33 98/140/33 95/137/33
f 15/30/33 91/133/33 103/145/33 16/31/33
f 91/133/33 97/139/33 94/136/33 103/145/33
f 42/67/34 101/143/34 100/142/34 70/107/34
f 101/143/34 96/138/34 93/135/34 100/142/34
f 16/31/33 103/145/33 98/140/33 74/111/33
f 103/145/33 94/136/33 95/137/33 98/140/33
f 63/99/33 97/139/33 104/146/33 64/100/33
f 97/139/33 91/133/33 89/129/33 104/146/33
f 64/101/38 104/147/36 86/125/36 48/79/38
f 104/147/36 89/130/36 90/131/36 86/125/36
f 80/117/33 79/116/33 102/144/33 29/50/33
f 79/116/33 68/105/33 88/128/33 102/144/33
f 25/46/34 56/91/34 92/134/34 26/47/34
f 56/91/34 82/119/34 87/127/34 92/134/34
f 76/113/34 99/141/34 90/132/34 45/73/34
f 99/141/34 85/124/34 86/126/34 90/132/34
