# Blender 3.1.2
# www.blender.org
mtllib frame2.mtl
g Object_2_Object_0
v 0.124678 -0.003753 1.272781
v 0.307480 0.001459 1.272781
v -0.147907 3.190309 1.272781
v -0.328942 3.164422 1.272781
v -0.328942 3.164422 1.272781
v -0.147907 3.190309 1.272781
v -0.147907 3.190308 -1.272782
v -0.328942 3.164421 -1.272782
v -0.328942 3.164421 -1.272782
v -0.147907 3.190308 -1.272782
v 0.307480 0.001459 -1.272781
v 0.124678 -0.003753 -1.272781
v 0.124678 -0.003753 -1.272781
v 0.307480 0.001459 -1.272781
v 0.307480 0.001459 1.272781
v 0.124678 -0.003753 1.272781
v 0.123735 0.166524 1.130826
v 0.123735 0.166524 -1.130826
v -0.280078 2.990532 -1.130826
v -0.280078 2.990532 1.130826
v -1.899447 0.009962 -0.960274
v -1.899447 0.009962 0.960274
v -2.052525 0.001914 0.960274
v -2.052525 0.001914 -0.960274
v 0.307480 0.001459 1.272781
v 0.307480 0.001459 -1.272781
v 0.281251 0.189048 -1.130826
v 0.281251 0.189048 1.130826
v 0.307480 0.001459 -1.272781
v -0.147907 3.190308 -1.272782
v -0.122562 3.013056 -1.130826
v 0.281251 0.189048 -1.130826
v -0.147907 3.190308 -1.272782
v -0.147907 3.190309 1.272781
v -0.122562 3.013057 1.130826
v -0.122562 3.013056 -1.130826
v -0.147907 3.190309 1.272781
v 0.307480 0.001459 1.272781
v 0.281251 0.189048 1.130826
v -0.122562 3.013057 1.130826
v 0.281251 0.189048 1.130826
v 0.281251 0.189048 -1.130826
v 0.123735 0.166524 -1.130826
v 0.123735 0.166524 1.130826
v 0.281251 0.189048 -1.130826
v -0.122562 3.013056 -1.130826
v -0.280078 2.990532 -1.130826
v 0.123735 0.166524 -1.130826
v -0.122562 3.013056 -1.130826
v -0.122562 3.013057 1.130826
v -0.280078 2.990532 1.130826
v -0.280078 2.990532 -1.130826
v -0.122562 3.013057 1.130826
v 0.281251 0.189048 1.130826
v 0.123735 0.166524 1.130826
v -0.280078 2.990532 1.130826
v 0.124678 -0.003753 -1.272781
v 0.124678 -0.003753 1.272781
v -0.218802 2.394168 0.960274
v -0.218802 2.394168 -0.960274
v 0.124678 -0.003753 1.272781
v -0.328942 3.164422 1.272781
v -0.240500 2.545915 0.960274
v -0.218802 2.394168 0.960274
v -0.328942 3.164422 1.272781
v -0.328942 3.164421 -1.272782
v -0.240500 2.545915 -0.960274
v -0.240500 2.545915 0.960274
v -0.328942 3.164421 -1.272782
v 0.124678 -0.003753 -1.272781
v -0.218802 2.394168 -0.960274
v -0.240500 2.545915 -0.960274
v -0.218802 2.394168 -0.960274
v -0.218802 2.394168 0.960274
v -1.899447 0.009962 0.960274
v -1.899447 0.009962 -0.960274
v -0.218802 2.394168 0.960274
v -0.240500 2.545915 0.960274
v -2.052525 0.001914 0.960274
v -1.899447 0.009962 0.960274
v -0.240500 2.545915 0.960274
v -0.240500 2.545915 -0.960274
v -2.052525 0.001914 -0.960274
v -2.052525 0.001914 0.960274
v -0.240500 2.545915 -0.960274
v -0.218802 2.394168 -0.960274
v -1.899447 0.009962 -0.960274
v -2.052525 0.001914 -0.960274
vn -0.0000 -0.0000 1.0000
vn -0.1416 0.9899 -0.0000
vn -0.0000 -0.0000 -1.0000
vn 0.0285 -0.9996 -0.0000
vn 0.9899 0.1416 -0.0000
vn 0.0525 -0.9986 -0.0000
vn 0.9904 0.1385 -0.0000
vn 0.9899 0.1415 -0.0021
vn 0.9899 0.1415 -0.0020
vn 0.9899 0.1415 -0.0000
vn 0.9899 0.1415 0.0020
vn 0.9899 0.1415 0.0021
vn 0.1416 -0.9899 -0.0000
vn -0.9899 -0.1418 -0.0000
vn -0.9899 -0.1417 0.0004
vn -0.9899 -0.1417 0.0005
vn -0.9899 -0.1416 -0.0000
vn -0.9899 -0.1417 -0.0005
vn -0.9899 -0.1415 -0.0000
vn 0.8173 -0.5762 -0.0000
vn -0.8145 0.5802 -0.0000
vt 0.608908 0.385327
vt 0.608499 0.400344
vt 0.830887 0.394345
vt 0.829859 0.379269
vt 0.721188 0.939653
vt 0.731396 0.939653
vt 0.731396 0.800411
vt 0.721188 0.800411
vt 0.594248 0.314956
vt 0.593168 0.330036
vt 0.872046 0.346056
vt 0.871326 0.330968
vt 0.188058 0.808953
vt 0.188058 0.851241
vt 0.689645 0.851241
vt 0.689645 0.808953
vt 0.604712 0.599081
vt 0.754658 0.599081
vt 0.754658 0.424069
vt 0.604712 0.424069
vt 0.478561 0.112085
vt 0.864846 0.112085
vt 0.864846 0.089625
vt 0.478561 0.089625
vt 0.595300 0.678716
vt 0.764069 0.678716
vt 0.754658 0.667348
vt 0.604712 0.667348
vt 0.764069 0.678716
vt 0.764069 0.481351
vt 0.754658 0.492336
vt 0.754658 0.667348
vt 0.848347 0.758095
vt 0.848347 0.946593
vt 0.863059 0.936081
vt 0.863059 0.768606
vt 0.595300 0.481351
vt 0.595300 0.678716
vt 0.604712 0.667348
vt 0.604712 0.492336
vt 0.782156 0.716907
vt 0.936204 0.716907
vt 0.936204 0.708252
vt 0.782156 0.708252
vt 0.540428 0.743732
vt 0.754071 0.741306
vt 0.753886 0.732838
vt 0.540243 0.735265
vt 0.800769 0.938548
vt 0.800769 0.784288
vt 0.780272 0.784288
vt 0.780272 0.938548
vt 0.535289 0.717370
vt 0.767174 0.713709
vt 0.767527 0.702727
vt 0.535641 0.706387
vt 0.359308 0.779366
vt 0.518395 0.779366
vt 0.498865 0.668422
vt 0.378838 0.668422
vt 0.518395 0.779366
vt 0.518395 0.632847
vt 0.498865 0.661414
vt 0.498865 0.668422
vt 0.930643 0.765101
vt 0.930643 0.930779
vt 0.972798 0.910439
vt 0.972798 0.785440
vt 0.359308 0.632847
vt 0.359308 0.779366
vt 0.378838 0.668422
vt 0.378838 0.661414
vt 0.031504 0.588739
vt 0.274860 0.588739
vt 0.274860 0.205261
vt 0.031504 0.205261
vt 0.961295 0.232051
vt 0.969746 0.218661
vt 0.501370 0.200197
vt 0.524977 0.216708
vt 0.801749 0.641738
vt 0.927182 0.641738
vt 0.927182 0.461143
vt 0.801749 0.461143
vt 0.311281 0.686407
vt 0.324294 0.677716
vt 0.323965 0.355011
vt 0.309032 0.340348
s 0
g Object_2_lambert5SG
usemtl lambert5SG
f 1/1/1 2/2/1 3/3/1
f 1/1/1 3/3/1 4/4/1
f 5/5/2 6/6/2 7/7/2
f 5/5/2 7/7/2 8/8/2
f 9/9/3 10/10/3 11/11/3
f 9/9/3 11/11/3 12/12/3
f 13/13/4 14/14/4 15/15/4
f 13/13/4 15/15/4 16/16/4
f 17/17/5 18/18/5 19/19/5
f 17/17/5 19/19/5 20/20/5
f 21/21/6 22/22/6 23/23/6
f 21/21/6 23/23/6 24/24/6
f 25/25/7 26/26/7 27/27/7
f 25/25/7 27/27/7 28/28/7
s 1
f 29/29/8 30/30/8 31/31/9
f 29/29/8 31/31/9 32/32/8
s 0
f 33/33/10 34/34/10 35/35/10
f 33/33/10 35/35/10 36/36/10
s 1
f 37/37/11 38/38/12 39/39/12
f 37/37/11 39/39/12 40/40/12
s 0
f 41/41/2 42/42/2 43/43/2
f 41/41/2 43/43/2 44/44/2
f 45/45/1 46/46/1 47/47/1
f 45/45/1 47/47/1 48/48/1
f 49/49/13 50/50/13 51/51/13
f 49/49/13 51/51/13 52/52/13
f 53/53/3 54/54/3 55/55/3
f 53/53/3 55/55/3 56/56/3
f 57/57/14 58/58/14 59/59/14
f 57/57/14 59/59/14 60/60/14
f 61/61/15 62/62/15 63/63/15
s 1
f 61/61/16 63/63/16 64/64/16
s 0
f 65/65/17 66/66/17 67/67/17
f 65/65/17 67/67/17 68/68/17
f 69/69/18 70/70/18 71/71/18
f 69/69/19 71/71/19 72/72/19
f 73/73/20 74/74/20 75/75/20
f 73/73/20 75/75/20 76/76/20
f 77/77/1 78/78/1 79/79/1
f 77/77/1 79/79/1 80/80/1
f 81/81/21 82/82/21 83/83/21
f 81/81/21 83/83/21 84/84/21
f 85/85/3 86/86/3 87/87/3
f 85/85/3 87/87/3 88/88/3
