# Blender 3.1.2
# www.blender.org
mtllib frame2.mtl
o Object_4
v -0.028956 0.820262 -0.353278
v -0.061337 0.813118 -0.353278
v -0.061337 0.813118 0.353278
v -0.028956 0.820262 0.353278
v 0.149914 0.009509 0.353278
v -0.028956 0.820262 0.353278
v -0.061337 0.813118 0.353278
v 0.117533 0.002365 0.353278
v 0.117533 0.002365 -0.353278
v 0.149914 0.009509 -0.353278
v 0.149914 0.009509 0.353278
v 0.117533 0.002365 0.353278
v 0.145048 0.031561 0.334060
v 0.145048 0.031561 -0.334060
v 0.146124 0.031798 -0.334060
v 0.146124 0.031798 0.334060
v 0.117533 0.002365 -0.353278
v -0.061337 0.813118 -0.353278
v -0.028956 0.820262 -0.353278
v 0.149914 0.009509 -0.353278
v -0.027131 0.811988 -0.346068
v 0.148088 0.017783 -0.346068
v 0.149914 0.009509 -0.353278
v -0.028956 0.820262 -0.353278
v 0.148088 0.017783 0.346068
v -0.027131 0.811988 0.346068
v -0.028956 0.820262 0.353278
v 0.149914 0.009509 0.353278
v -0.027131 0.811988 0.346068
v -0.027131 0.811988 -0.346068
v -0.028956 0.820262 -0.353278
v -0.028956 0.820262 0.353278
v 0.148088 0.017783 -0.346068
v 0.148088 0.017783 0.346068
v 0.149914 0.009509 0.353278
v 0.149914 0.009509 -0.353278
v 0.145048 0.031561 0.334060
v -0.024091 0.798210 0.334060
v -0.017115 0.799749 0.334060
v 0.152024 0.033100 0.334060
v 0.148088 0.017783 -0.346068
v -0.027131 0.811988 -0.346068
v -0.020155 0.813527 -0.346068
v 0.155064 0.019322 -0.346068
v 0.145048 0.031561 -0.334060
v 0.145048 0.031561 0.334060
v 0.152024 0.033100 0.334060
v 0.152024 0.033100 -0.334060
v -0.027131 0.811988 -0.346068
v -0.027131 0.811988 0.346068
v -0.020155 0.813527 0.346068
v -0.020155 0.813527 -0.346068
v -0.017115 0.799749 -0.334060
v 0.152024 0.033100 -0.334060
v 0.155064 0.019322 -0.346068
v -0.020155 0.813527 -0.346068
v 0.152024 0.033100 0.334060
v -0.017115 0.799749 0.334060
v -0.020155 0.813527 0.346068
v 0.155064 0.019322 0.346068
v -0.017115 0.799749 0.334060
v -0.017115 0.799749 -0.334060
v -0.020155 0.813527 -0.346068
v -0.020155 0.813527 0.346068
v 0.152024 0.033100 -0.334060
v 0.152024 0.033100 0.334060
v 0.155064 0.019322 0.346068
v 0.155064 0.019322 -0.346068
v 0.148088 0.017783 0.346068
v 0.148088 0.017783 -0.346068
v 0.155064 0.019322 -0.346068
v 0.155064 0.019322 0.346068
v -0.027131 0.811988 0.346068
v 0.148088 0.017783 0.346068
v 0.155064 0.019322 0.346068
v -0.020155 0.813527 0.346068
v -0.024091 0.798210 0.334060
v -0.024091 0.798210 -0.334060
v -0.017115 0.799749 -0.334060
v -0.017115 0.799749 0.334060
v -0.024091 0.798210 -0.334060
v 0.145048 0.031561 -0.334060
v 0.152024 0.033100 -0.334060
v -0.017115 0.799749 -0.334060
v -0.015243 0.763218 -0.303358
v -0.015243 0.763218 0.303358
v -0.005827 0.765295 0.303358
v -0.005827 0.765295 -0.303358
v -0.024091 0.798210 0.334060
v 0.145048 0.031561 0.334060
v 0.146124 0.031798 0.334060
v -0.023015 0.798448 0.334060
v -0.024091 0.798210 -0.334060
v -0.024091 0.798210 0.334060
v -0.023015 0.798448 0.334060
v -0.023015 0.798448 -0.334060
v 0.145048 0.031561 -0.334060
v -0.024091 0.798210 -0.334060
v -0.023015 0.798448 -0.334060
v 0.146124 0.031798 -0.334060
v -0.015243 0.763218 -0.303358
v 0.138351 0.067028 -0.303358
v 0.146124 0.031798 -0.334060
v -0.023015 0.798448 -0.334060
v 0.138351 0.067028 0.303358
v -0.015243 0.763218 0.303358
v -0.023015 0.798448 0.334060
v 0.146124 0.031798 0.334060
v -0.015243 0.763218 0.303358
v -0.015243 0.763218 -0.303358
v -0.023015 0.798448 -0.334060
v -0.023015 0.798448 0.334060
v 0.138351 0.067028 -0.303358
v 0.138351 0.067028 0.303358
v 0.146124 0.031798 0.334060
v 0.146124 0.031798 -0.334060
v 0.143674 0.087656 0.287192
v 0.143674 0.087656 -0.287192
v 0.116627 0.081689 -0.287192
v 0.116627 0.081689 0.287192
v 0.138351 0.067028 -0.303358
v -0.015243 0.763218 -0.303358
v -0.005827 0.765295 -0.303358
v 0.147767 0.069106 -0.303358
v 0.138351 0.067028 0.303358
v 0.138351 0.067028 -0.303358
v 0.147767 0.069106 -0.303358
v 0.147767 0.069106 0.303358
v -0.015243 0.763218 0.303358
v 0.138351 0.067028 0.303358
v 0.147767 0.069106 0.303358
v -0.005827 0.765295 0.303358
v -0.001735 0.746744 -0.287192
v 0.143674 0.087656 -0.287192
v 0.147767 0.069106 -0.303358
v -0.005827 0.765295 -0.303358
v 0.143674 0.087656 0.287192
v -0.001735 0.746744 0.287192
v -0.005827 0.765295 0.303358
v 0.147767 0.069106 0.303358
v -0.001735 0.746744 0.287192
v -0.001735 0.746744 -0.287192
v -0.005827 0.765295 -0.303358
v -0.005827 0.765295 0.303358
v 0.143674 0.087656 -0.287192
v 0.143674 0.087656 0.287192
v 0.147767 0.069106 0.303358
v 0.147767 0.069106 -0.303358
v -0.001735 0.746744 0.287192
v 0.143674 0.087656 0.287192
v 0.116627 0.081689 0.287192
v -0.028782 0.740777 0.287192
v -0.001735 0.746744 -0.287192
v -0.001735 0.746744 0.287192
v -0.028782 0.740777 0.287192
v -0.028782 0.740777 -0.287192
v 0.143674 0.087656 -0.287192
v -0.001735 0.746744 -0.287192
v -0.028782 0.740777 -0.287192
v 0.116627 0.081689 -0.287192
vn -0.2154 0.9765 -0.0000
vn -0.0000 -0.0000 1.0000
vn 0.2154 -0.9765 -0.0000
vn -0.0000 -0.0000 -1.0000
vn 0.9765 0.2154 -0.0000
vt 0.375000 1.000000
vt 0.625000 1.000000
vt 0.625000 0.750000
vt 0.375000 0.750000
vt 0.375000 0.750000
vt 0.625000 0.750000
vt 0.625000 0.500000
vt 0.375000 0.500000
vt 0.375000 0.250000
vt 0.625000 0.250000
vt 0.625000 0.000000
vt 0.375000 0.000000
vt 0.131800 0.256800
vt 0.131800 0.493200
vt 0.131800 0.493200
vt 0.131800 0.256800
vt 0.625000 0.500000
vt 0.875000 0.500000
vt 0.875000 0.250000
vt 0.625000 0.250000
vt 0.372449 0.497449
vt 0.127551 0.497449
vt 0.125000 0.500000
vt 0.375000 0.500000
vt 0.127551 0.252551
vt 0.372449 0.252551
vt 0.375000 0.250000
vt 0.125000 0.250000
vt 0.372449 0.252551
vt 0.372449 0.497449
vt 0.375000 0.500000
vt 0.375000 0.250000
vt 0.127551 0.497449
vt 0.127551 0.252551
vt 0.125000 0.250000
vt 0.125000 0.500000
vt 0.131800 0.256800
vt 0.368200 0.256800
vt 0.368200 0.256800
vt 0.131800 0.256800
vt 0.127551 0.497449
vt 0.372449 0.497449
vt 0.372449 0.497449
vt 0.127551 0.497449
vt 0.131800 0.493200
vt 0.131800 0.256800
vt 0.131800 0.256800
vt 0.131800 0.493200
vt 0.372449 0.497449
vt 0.372449 0.252551
vt 0.372449 0.252551
vt 0.372449 0.497449
vt 0.368200 0.493200
vt 0.131800 0.493200
vt 0.127551 0.497449
vt 0.372449 0.497449
vt 0.131800 0.256800
vt 0.368200 0.256800
vt 0.372449 0.252551
vt 0.127551 0.252551
vt 0.368200 0.256800
vt 0.368200 0.493200
vt 0.372449 0.497449
vt 0.372449 0.252551
vt 0.131800 0.493200
vt 0.131800 0.256800
vt 0.127551 0.252551
vt 0.127551 0.497449
vt 0.127551 0.252551
vt 0.127551 0.497449
vt 0.127551 0.497449
vt 0.127551 0.252551
vt 0.372449 0.252551
vt 0.127551 0.252551
vt 0.127551 0.252551
vt 0.372449 0.252551
vt 0.368200 0.256800
vt 0.368200 0.493200
vt 0.368200 0.493200
vt 0.368200 0.256800
vt 0.368200 0.493200
vt 0.131800 0.493200
vt 0.131800 0.493200
vt 0.368200 0.493200
vt 0.357337 0.482337
vt 0.357337 0.267663
vt 0.357337 0.267663
vt 0.357337 0.482337
vt 0.368200 0.256800
vt 0.131800 0.256800
vt 0.131800 0.256800
vt 0.368200 0.256800
vt 0.368200 0.493200
vt 0.368200 0.256800
vt 0.368200 0.256800
vt 0.368200 0.493200
vt 0.131800 0.493200
vt 0.368200 0.493200
vt 0.368200 0.493200
vt 0.131800 0.493200
vt 0.357337 0.482337
vt 0.142663 0.482337
vt 0.131800 0.493200
vt 0.368200 0.493200
vt 0.142663 0.267663
vt 0.357337 0.267663
vt 0.368200 0.256800
vt 0.131800 0.256800
vt 0.357337 0.267663
vt 0.357337 0.482337
vt 0.368200 0.493200
vt 0.368200 0.256800
vt 0.142663 0.482337
vt 0.142663 0.267663
vt 0.131800 0.256800
vt 0.131800 0.493200
vt 0.148383 0.273383
vt 0.148383 0.476617
vt 0.148383 0.476617
vt 0.148383 0.273383
vt 0.142663 0.482337
vt 0.357337 0.482337
vt 0.357337 0.482337
vt 0.142663 0.482337
vt 0.142663 0.267663
vt 0.142663 0.482337
vt 0.142663 0.482337
vt 0.142663 0.267663
vt 0.357337 0.267663
vt 0.142663 0.267663
vt 0.142663 0.267663
vt 0.357337 0.267663
vt 0.351617 0.476617
vt 0.148383 0.476617
vt 0.142663 0.482337
vt 0.357337 0.482337
vt 0.148383 0.273383
vt 0.351617 0.273383
vt 0.357337 0.267663
vt 0.142663 0.267663
vt 0.351617 0.273383
vt 0.351617 0.476617
vt 0.357337 0.482337
vt 0.357337 0.267663
vt 0.148383 0.476617
vt 0.148383 0.273383
vt 0.142663 0.267663
vt 0.142663 0.482337
vt 0.351617 0.273383
vt 0.148383 0.273383
vt 0.148383 0.273383
vt 0.351617 0.273383
vt 0.351617 0.476617
vt 0.351617 0.273383
vt 0.351617 0.273383
vt 0.351617 0.476617
vt 0.148383 0.476617
vt 0.351617 0.476617
vt 0.351617 0.476617
vt 0.148383 0.476617
s 0
usemtl Frame
f 1/1/1 2/2/1 3/3/1
f 1/1/1 3/3/1 4/4/1
f 5/5/2 6/6/2 7/7/2
f 5/5/2 7/7/2 8/8/2
f 9/9/3 10/10/3 11/11/3
f 9/9/3 11/11/3 12/12/3
f 13/13/3 14/14/3 15/15/3
f 13/13/3 15/15/3 16/16/3
f 17/17/4 18/18/4 19/19/4
f 17/17/4 19/19/4 20/20/4
f 21/21/5 22/22/5 23/23/5
f 21/21/5 23/23/5 24/24/5
f 25/25/5 26/26/5 27/27/5
f 25/25/5 27/27/5 28/28/5
f 29/29/5 30/30/5 31/31/5
f 29/29/5 31/31/5 32/32/5
f 33/33/5 34/34/5 35/35/5
f 33/33/5 35/35/5 36/36/5
f 37/37/4 38/38/4 39/39/4
f 37/37/4 39/39/4 40/40/4
f 41/41/4 42/42/4 43/43/4
f 41/41/4 43/43/4 44/44/4
f 45/45/1 46/46/1 47/47/1
f 45/45/1 47/47/1 48/48/1
f 49/49/1 50/50/1 51/51/1
f 49/49/1 51/51/1 52/52/1
f 53/53/5 54/54/5 55/55/5
f 53/53/5 55/55/5 56/56/5
f 57/57/5 58/58/5 59/59/5
f 57/57/5 59/59/5 60/60/5
f 61/61/5 62/62/5 63/63/5
f 61/61/5 63/63/5 64/64/5
f 65/65/5 66/66/5 67/67/5
f 65/65/5 67/67/5 68/68/5
f 69/69/3 70/70/3 71/71/3
f 69/69/3 71/71/3 72/72/3
f 73/73/2 74/74/2 75/75/2
f 73/73/2 75/75/2 76/76/2
f 77/77/3 78/78/3 79/79/3
f 77/77/3 79/79/3 80/80/3
f 81/81/2 82/82/2 83/83/2
f 81/81/2 83/83/2 84/84/2
f 85/85/1 86/86/1 87/87/1
f 85/85/1 87/87/1 88/88/1
f 89/89/2 90/90/2 91/91/2
f 89/89/2 91/91/2 92/92/2
f 93/93/1 94/94/1 95/95/1
f 93/93/1 95/95/1 96/96/1
f 97/97/4 98/98/4 99/99/4
f 97/97/4 99/99/4 100/100/4
f 101/101/5 102/102/5 103/103/5
f 101/101/5 103/103/5 104/104/5
f 105/105/5 106/106/5 107/107/5
f 105/105/5 107/107/5 108/108/5
f 109/109/5 110/110/5 111/111/5
f 109/109/5 111/111/5 112/112/5
f 113/113/5 114/114/5 115/115/5
f 113/113/5 115/115/5 116/116/5
f 117/117/1 118/118/1 119/119/1
f 117/117/1 119/119/1 120/120/1
f 121/121/4 122/122/4 123/123/4
f 121/121/4 123/123/4 124/124/4
f 125/125/3 126/126/3 127/127/3
f 125/125/3 127/127/3 128/128/3
f 129/129/2 130/130/2 131/131/2
f 129/129/2 131/131/2 132/132/2
f 133/133/5 134/134/5 135/135/5
f 133/133/5 135/135/5 136/136/5
f 137/137/5 138/138/5 139/139/5
f 137/137/5 139/139/5 140/140/5
f 141/141/5 142/142/5 143/143/5
f 141/141/5 143/143/5 144/144/5
f 145/145/5 146/146/5 147/147/5
f 145/145/5 147/147/5 148/148/5
f 149/149/4 150/150/4 151/151/4
f 149/149/4 151/151/4 152/152/4
f 153/153/3 154/154/3 155/155/3
f 153/153/3 155/155/3 156/156/3
f 157/157/2 158/158/2 159/159/2
f 157/157/2 159/159/2 160/160/2
o Object_5
v 0.116627 0.081689 -0.287192
v -0.028782 0.740777 -0.287192
v -0.028782 0.740777 0.287192
v 0.116627 0.081689 0.287192
vn 0.9765 0.2154 -0.0000
vt 0.148383 0.476617
vt 0.351617 0.476617
vt 0.351617 0.273383
vt 0.148383 0.273383
s 0
usemtl mirror
f 161/161/6 162/162/6 163/163/6
f 161/161/6 163/163/6 164/164/6
o Object_6
v 0.117533 0.002365 0.353278
v -0.061337 0.813118 0.353278
v -0.061337 0.813118 -0.353278
v 0.117533 0.002365 -0.353278
vn -0.9765 -0.2154 -0.0000
vt 0.375000 0.500000
vt 0.625000 0.500000
vt 0.625000 0.250000
vt 0.375000 0.250000
s 0
usemtl Material.001
f 165/165/7 166/166/7 167/167/7
f 165/165/7 167/167/7 168/168/7
o Object_8
v -0.212117 0.002358 0.109078
v -0.234476 0.002405 0.109078
v -0.234476 0.002405 -0.109078
v -0.212117 0.002358 -0.109078
v -0.212117 0.002358 -0.109078
v -0.234476 0.002405 -0.109078
v 0.014134 0.478683 -0.067964
v 0.019755 0.457042 -0.067964
v 0.019755 0.457042 -0.067964
v 0.014134 0.478683 -0.067964
v 0.014134 0.478683 0.067964
v 0.019755 0.457042 0.067964
v 0.019755 0.457042 0.067964
v 0.014134 0.478683 0.067964
v -0.234476 0.002405 0.109078
v -0.212117 0.002358 0.109078
v -0.212117 0.002358 -0.109078
v 0.019755 0.457042 -0.067964
v 0.019755 0.457042 0.067964
v -0.212117 0.002358 0.109078
v 0.014134 0.478683 -0.067964
v -0.234476 0.002405 -0.109078
v -0.234476 0.002405 0.109078
v 0.014134 0.478683 0.067964
vn -0.0021 -1.0000 -0.0000
vn 0.0487 0.0628 -0.9968
vn 0.0487 0.0629 -0.9968
vn 0.0487 0.0630 -0.9968
vn 0.9679 0.2514 -0.0000
vn 0.0487 0.0629 0.9968
vn 0.8908 -0.4543 -0.0000
vn -0.8865 0.4627 -0.0000
vt 0.375000 1.000000
vt 0.625000 1.000000
vt 0.625000 0.750000
vt 0.375000 0.750000
vt 0.375000 0.750000
vt 0.625000 0.750000
vt 0.625000 0.500000
vt 0.375000 0.500000
vt 0.375000 0.500000
vt 0.625000 0.500000
vt 0.625000 0.250000
vt 0.375000 0.250000
vt 0.375000 0.250000
vt 0.625000 0.250000
vt 0.625000 0.000000
vt 0.375000 0.000000
vt 0.125000 0.500000
vt 0.375000 0.500000
vt 0.375000 0.250000
vt 0.125000 0.250000
vt 0.625000 0.500000
vt 0.875000 0.500000
vt 0.875000 0.250000
vt 0.625000 0.250000
s 0
usemtl Material.001
f 169/169/8 170/170/8 171/171/8
f 169/169/8 171/171/8 172/172/8
s 1
f 173/173/9 174/174/10 175/175/11
f 173/173/9 175/175/11 176/176/10
s 0
f 177/177/12 178/178/12 179/179/12
f 177/177/12 179/179/12 180/180/12
s 1
f 181/181/13 182/182/13 183/183/13
f 181/181/13 183/183/13 184/184/13
s 0
f 185/185/14 186/186/14 187/187/14
f 185/185/14 187/187/14 188/188/14
f 189/189/15 190/190/15 191/191/15
f 189/189/15 191/191/15 192/192/15
o Object_10
v 0.128704 0.081040 0.290230
v 0.128704 0.081040 -0.290230
v -0.028731 0.793961 -0.290230
v -0.028731 0.793961 0.290230
vn 0.9765 0.2156 -0.0000
vt 0.000000 1.000000
vt 1.000000 1.000000
vt 1.000000 0.000000
vt 0.000000 0.000000
s 0
usemtl material_0
f 193/193/16 194/194/16 195/195/16
f 193/193/16 195/195/16 196/196/16
