# 3ds Max Wavefront OBJ Exporter v0.97b - (c)2007 guruware
# 创建的文件:25.03.2012 14:16:43

mtllib IKE060003-3D.mtl

#
# object Cylinder01
#

v  1709.7985 0.0000 -711.8792
v  1692.9485 0.0000 -807.4396
v  1634.9612 712.3247 -786.3340
v  1648.0896 712.3247 -711.8792
v  1644.4313 0.0000 -891.4741
v  1597.1595 712.3247 -851.8084
v  1570.0984 0.0000 -953.8467
v  1539.2440 712.3247 -900.4053
v  1478.9158 0.0000 -987.0345
v  1468.2001 712.3247 -926.2632
v  1381.8811 0.0000 -987.0345
v  1392.5967 712.3247 -926.2632
v  1290.6985 0.0000 -953.8467
v  1321.5529 712.3247 -900.4053
v  1216.3656 0.0000 -891.4741
v  1263.6373 712.3247 -851.8084
v  1167.8484 0.0000 -807.4396
v  1225.8357 712.3247 -786.3340
v  1150.9984 0.0000 -711.8793
v  1212.7073 712.3247 -711.8793
v  1167.8483 0.0000 -616.3188
v  1225.8356 712.3247 -637.4245
v  1216.3656 0.0000 -532.2844
v  1263.6372 712.3247 -571.9501
v  1290.6984 0.0000 -469.9118
v  1321.5527 712.3247 -523.3531
v  1381.8810 0.0000 -436.7239
v  1392.5967 712.3247 -497.4952
v  1478.9156 0.0000 -436.7239
v  1468.2000 712.3247 -497.4952
v  1570.0983 0.0000 -469.9117
v  1539.2439 712.3247 -523.3530
v  1644.4312 0.0000 -532.2842
v  1597.1594 712.3247 -571.9500
v  1692.9485 0.0000 -616.3186
v  1634.9612 712.3247 -637.4243
v  1438.4525 710.3632 -711.8792
v  1437.9668 710.3632 -714.6339
v  1437.9668 1609.9847 -714.6339
v  1438.4525 1609.9847 -711.8792
v  1436.5682 710.3632 -717.0563
v  1436.5682 1609.9847 -717.0563
v  1434.4255 710.3632 -718.8542
v  1434.4255 1609.9847 -718.8542
v  1431.7970 710.3632 -719.8109
v  1431.7970 1609.9847 -719.8109
v  1428.9999 710.3632 -719.8109
v  1428.9999 1609.9847 -719.8109
v  1426.3713 710.3632 -718.8542
v  1426.3713 1609.9847 -718.8542
v  1424.2286 710.3632 -717.0563
v  1424.2286 1609.9847 -717.0563
v  1422.8301 710.3632 -714.6339
v  1422.8301 1609.9847 -714.6339
v  1422.3444 710.3632 -711.8792
v  1422.3444 1609.9847 -711.8792
v  1422.8301 710.3632 -709.1245
v  1422.8301 1609.9847 -709.1245
v  1424.2286 710.3632 -706.7021
v  1424.2286 1609.9847 -706.7021
v  1426.3713 710.3632 -704.9041
v  1426.3713 1609.9847 -704.9041
v  1428.9999 710.3632 -703.9474
v  1428.9999 1609.9847 -703.9474
v  1431.7970 710.3632 -703.9474
v  1431.7970 1609.9847 -703.9474
v  1434.4255 710.3632 -704.9041
v  1434.4255 1609.9847 -704.9041
v  1436.5682 710.3632 -706.7021
v  1436.5682 1609.9847 -706.7021
v  1437.9668 710.3632 -709.1245
v  1437.9668 1609.9847 -709.1245
# 72 vertices

vn 0.9963 0.0863 0.0000
vn 0.9362 0.0863 -0.3407
vn 0.7632 0.0863 -0.6404
vn 0.4981 0.0863 -0.8628
vn 0.1730 0.0863 -0.9811
vn -0.0000 0.0850 -0.9964
vn -0.3408 0.0850 -0.9363
vn -0.4981 0.0863 -0.8628
vn -0.7632 0.0863 -0.6404
vn -0.9362 0.0863 -0.3407
vn -0.9963 0.0863 -0.0000
vn -0.9362 0.0863 0.3407
vn -0.7632 0.0863 0.6404
vn -0.4981 0.0863 0.8628
vn -0.1730 0.0863 0.9811
vn 0.1730 0.0863 0.9811
vn 0.4981 0.0863 0.8628
vn 0.7632 0.0863 0.6404
vn 0.9362 0.0863 0.3407
vn 0.0000 1.0000 -0.0000
vn 1.0000 0.0000 0.0000
vn 0.9397 0.0000 -0.3420
vn 1.0000 -0.0000 0.0000
vn 0.7660 0.0000 -0.6428
vn 0.5000 0.0000 -0.8660
vn 0.1736 0.0000 -0.9848
vn 0.0000 0.0000 -1.0000
vn -0.3420 0.0000 -0.9397
vn -0.5000 0.0000 -0.8660
vn -0.7660 0.0000 -0.6428
vn -0.9397 0.0000 -0.3420
vn -1.0000 -0.0000 0.0000
vn -1.0000 0.0000 0.0000
vn -0.9397 -0.0000 0.3420
vn -0.7660 -0.0000 0.6428
vn -0.5000 -0.0000 0.8660
vn -0.1736 -0.0000 0.9848
vn 0.1736 -0.0000 0.9848
vn 0.5000 -0.0000 0.8660
vn 0.7660 -0.0000 0.6428
vn 0.9397 -0.0000 0.3420
vn 0.0000 -1.0000 -0.0000
# 42 vertex normals

vt 0.7500 0.0000 0.0000
vt 0.8056 0.0000 0.0000
vt 0.8056 1.0000 0.0000
vt 0.7500 1.0000 0.0000
vt 0.8611 0.0000 0.0000
vt 0.8611 1.0000 0.0000
vt 0.9167 0.0000 0.0000
vt 0.9167 1.0000 0.0000
vt 0.9722 0.0000 0.0000
vt 0.9722 1.0000 0.0000
vt 1.0278 0.0000 0.0000
vt 1.0278 1.0000 0.0000
vt 0.0278 0.0000 0.0000
vt 0.0833 0.0000 0.0000
vt 0.0833 1.0000 0.0000
vt 0.0278 1.0000 0.0000
vt 0.1389 0.0000 0.0000
vt 0.1389 1.0000 0.0000
vt 0.1944 0.0000 0.0000
vt 0.1944 1.0000 0.0000
vt 0.2500 0.0000 0.0000
vt 0.2500 1.0000 0.0000
vt 0.3056 0.0000 0.0000
vt 0.3056 1.0000 0.0000
vt 0.3611 0.0000 0.0000
vt 0.3611 1.0000 0.0000
vt 0.4167 0.0000 0.0000
vt 0.4167 1.0000 0.0000
vt 0.4722 0.0000 0.0000
vt 0.4722 1.0000 0.0000
vt 0.5278 0.0000 0.0000
vt 0.5278 1.0000 0.0000
vt 0.5833 0.0000 0.0000
vt 0.5833 1.0000 0.0000
vt 0.6389 0.0000 0.0000
vt 0.6389 1.0000 0.0000
vt 0.6944 0.0000 0.0000
vt 0.6944 1.0000 0.0000
vt 0.3290 0.9698 0.0000
vt 0.1786 0.8830 0.0000
vt 0.0670 0.7500 0.0000
vt 0.0076 0.5868 0.0000
vt 0.0076 0.4132 0.0000
vt 0.0670 0.2500 0.0000
vt 0.1786 0.1170 0.0000
vt 0.3290 0.0302 0.0000
vt 0.5000 0.0000 0.0000
vt 0.6710 0.0302 0.0000
vt 0.8214 0.1170 0.0000
vt 0.9330 0.2500 0.0000
vt 0.9924 0.4132 0.0000
vt 0.9924 0.5868 0.0000
vt 0.9330 0.7500 0.0000
vt 0.8214 0.8830 0.0000
vt 0.6710 0.9698 0.0000
vt 0.5000 1.0000 0.0000
# 56 texture coords

g Cylinder01
usemtl 01___Default
s 8
f 1/1/1 2/2/2 3/3/2 4/4/1 
f 2/2/2 5/5/3 6/6/3 3/3/2 
f 5/5/3 7/7/4 8/8/4 6/6/3 
f 7/7/4 9/9/5 10/10/5 8/8/4 
f 9/9/5 11/11/6 12/12/6 10/10/5 
f 11/13/7 13/14/8 14/15/8 
f 14/15/8 12/16/7 11/13/7 
f 13/14/8 15/17/9 16/18/9 14/15/8 
f 15/17/9 17/19/10 18/20/10 16/18/9 
f 17/19/10 19/21/11 20/22/11 18/20/10 
f 19/21/11 21/23/12 22/24/12 20/22/11 
f 21/23/12 23/25/13 24/26/13 22/24/12 
f 23/25/13 25/27/14 26/28/14 24/26/13 
f 25/27/14 27/29/15 28/30/15 26/28/14 
f 27/29/15 29/31/16 30/32/16 28/30/15 
f 29/31/16 31/33/17 32/34/17 30/32/16 
f 31/33/17 33/35/18 34/36/18 32/34/17 
f 33/35/18 35/37/19 36/38/19 34/36/18 
f 35/37/19 1/1/1 4/4/1 36/38/19 
s 1
f 3/39/20 6/40/20 8/41/20 
f 8/41/20 10/42/20 12/43/20 
f 12/43/20 14/44/20 16/45/20 
f 8/41/20 12/43/20 16/45/20 
f 16/45/20 18/46/20 20/47/20 
f 20/47/20 22/48/20 24/49/20 
f 16/45/20 20/47/20 24/49/20 
f 24/49/20 26/50/20 28/51/20 
f 28/51/20 30/52/20 32/53/20 
f 24/49/20 28/51/20 32/53/20 
f 16/45/20 24/49/20 32/53/20 
f 8/41/20 16/45/20 32/53/20 
f 32/53/20 34/54/20 36/55/20 
f 8/41/20 32/53/20 36/55/20 
f 3/39/20 8/41/20 36/55/20 
f 4/56/20 3/39/20 36/55/20 
s 8
f 37/1/21 38/2/22 39/3/22 40/4/23 
f 38/2/22 41/5/24 42/6/24 39/3/22 
f 41/5/24 43/7/25 44/8/25 42/6/24 
f 43/7/25 45/9/26 46/10/26 44/8/25 
f 45/9/26 47/11/27 48/12/27 46/10/26 
f 47/13/28 49/14/29 50/15/29 
f 50/15/29 48/16/28 47/13/28 
f 49/14/29 51/17/30 52/18/30 50/15/29 
f 51/17/30 53/19/31 54/20/31 52/18/30 
f 53/19/31 55/21/32 56/22/33 54/20/31 
f 55/21/32 57/23/34 58/24/34 56/22/33 
f 57/23/34 59/25/35 60/26/35 58/24/34 
f 59/25/35 61/27/36 62/28/36 60/26/35 
f 61/27/36 63/29/37 64/30/37 62/28/36 
f 63/29/37 65/31/38 66/32/38 64/30/37 
f 65/31/38 67/33/39 68/34/39 66/32/38 
f 67/33/39 69/35/40 70/36/40 68/34/39 
f 69/35/40 71/37/41 72/38/41 70/36/40 
f 71/37/41 37/1/21 40/4/23 72/38/41 
s 1
f 69/54/42 67/53/42 65/52/42 
f 65/52/42 63/51/42 61/50/42 
f 61/50/42 59/49/42 57/48/42 
f 65/52/42 61/50/42 57/48/42 
f 57/48/42 55/47/42 53/46/42 
f 53/46/42 51/45/42 49/44/42 
f 57/48/42 53/46/42 49/44/42 
f 49/44/42 47/43/42 45/42/42 
f 45/42/42 43/41/42 41/40/42 
f 49/44/42 45/42/42 41/40/42 
f 57/48/42 49/44/42 41/40/42 
f 65/52/42 57/48/42 41/40/42 
f 41/40/42 38/39/42 37/56/42 
f 65/52/42 41/40/42 37/56/42 
f 69/54/42 65/52/42 37/56/42 
f 71/55/42 69/54/42 37/56/42 
f 39/39/20 42/40/20 44/41/20 
f 44/41/20 46/42/20 48/43/20 
f 48/43/20 50/44/20 52/45/20 
f 44/41/20 48/43/20 52/45/20 
f 52/45/20 54/46/20 56/47/20 
f 56/47/20 58/48/20 60/49/20 
f 52/45/20 56/47/20 60/49/20 
f 60/49/20 62/50/20 64/51/20 
f 64/51/20 66/52/20 68/53/20 
f 60/49/20 64/51/20 68/53/20 
f 52/45/20 60/49/20 68/53/20 
f 44/41/20 52/45/20 68/53/20 
f 68/53/20 70/54/20 72/55/20 
f 44/41/20 68/53/20 72/55/20 
f 39/39/20 44/41/20 72/55/20 
f 40/56/20 39/39/20 72/55/20 
# 34 polygons - 52 triangles

