# Blender v3.1.2 OBJ File: 'Sketchfab_2018_01_13_20_11_21.blend'
# www.blender.org
mtllib Sketchfab_2018_01_13_20_11_21.mtl
o Cube.001
v -0.208000 0.018500 0.193000
v -0.208000 1.414500 0.193000
v -0.208000 0.018500 -0.193000
v -0.208000 1.414500 -0.193000
v -0.165000 0.018500 0.193000
v -0.165000 1.414500 0.193000
v -0.165000 0.018500 -0.193000
v -0.165000 1.414500 -0.193000
vn -1.0000 0.0000 0.0000
vn 0.0000 0.0000 -1.0000
vn 1.0000 0.0000 0.0000
vn 0.0000 0.0000 1.0000
vn 0.0000 -1.0000 0.0000
vn 0.0000 1.0000 0.0000
usemtl None
s off
f 1//1 2//1 4//1 3//1
f 3//2 4//2 8//2 7//2
f 7//3 8//3 6//3 5//3
f 5//4 6//4 2//4 1//4
f 3//5 7//5 5//5 1//5
f 8//6 4//6 2//6 6//6
o Cube
v 0.210000 -0.018500 -0.195000
v 0.210000 -0.018500 0.195000
v -0.210000 -0.018500 0.195000
v -0.210000 -0.018500 -0.195000
v 0.210000 0.018500 -0.195000
v 0.210000 0.018500 0.195000
v -0.210000 0.018500 0.195000
v -0.210000 0.018500 -0.195000
vn 0.0000 -1.0000 0.0000
vn 0.0000 1.0000 0.0000
vn 1.0000 0.0000 0.0000
vn -0.0000 -0.0000 1.0000
vn -1.0000 -0.0000 -0.0000
vn 0.0000 0.0000 -1.0000
usemtl Material
s off
f 9//7 10//7 11//7 12//7
f 13//8 16//8 15//8 14//8
f 9//9 13//9 14//9 10//9
f 10//10 14//10 15//10 11//10
f 11//11 15//11 16//11 12//11
f 13//12 9//12 12//12 16//12
o Cube.002
v 0.165000 0.018500 0.193000
v 0.165000 1.414500 0.193000
v 0.165000 0.018500 -0.193000
v 0.165000 1.414500 -0.193000
v 0.208000 0.018500 0.193000
v 0.208000 1.414500 0.193000
v 0.208000 0.018500 -0.193000
v 0.208000 1.414500 -0.193000
vn -1.0000 0.0000 0.0000
vn 0.0000 0.0000 -1.0000
vn 1.0000 0.0000 0.0000
vn 0.0000 0.0000 1.0000
vn 0.0000 -1.0000 0.0000
vn 0.0000 1.0000 0.0000
usemtl white
s off
f 17//13 18//13 20//13 19//13
f 19//14 20//14 24//14 23//14
f 23//15 24//15 22//15 21//15
f 21//16 22//16 18//16 17//16
f 19//17 23//17 21//17 17//17
f 24//18 20//18 18//18 22//18
o Cube.003
v 0.210000 1.414500 -0.195000
v 0.210000 1.414500 0.195000
v -0.210000 1.414500 0.195000
v -0.210000 1.414500 -0.195000
v 0.210000 1.451500 -0.195000
v 0.210000 1.451500 0.195000
v -0.210000 1.451500 0.195000
v -0.210000 1.451500 -0.195000
vn 0.0000 -1.0000 0.0000
vn 0.0000 1.0000 -0.0000
vn 1.0000 0.0000 0.0000
vn -0.0000 -0.0000 1.0000
vn -1.0000 -0.0000 -0.0000
vn 0.0000 0.0000 -1.0000
usemtl white
s off
f 25//19 26//19 27//19 28//19
f 29//20 32//20 31//20 30//20
f 25//21 29//21 30//21 26//21
f 26//22 30//22 31//22 27//22
f 27//23 31//23 32//23 28//23
f 29//24 25//24 28//24 32//24
o Cube.006
v -0.165000 1.066250 0.191000
v -0.165000 1.083250 0.191000
v -0.165000 1.066250 -0.191000
v -0.165000 1.083250 -0.191000
v 0.165000 1.066250 0.191000
v 0.165000 1.083250 0.191000
v 0.165000 1.066250 -0.191000
v 0.165000 1.083250 -0.191000
vn -1.0000 0.0000 0.0000
vn 0.0000 0.0000 -1.0000
vn 1.0000 0.0000 0.0000
vn 0.0000 0.0000 1.0000
vn 0.0000 -1.0000 0.0000
vn 0.0000 1.0000 0.0000
usemtl None
s off
f 33//25 34//25 36//25 35//25
f 35//26 36//26 40//26 39//26
f 39//27 40//27 38//27 37//27
f 37//28 38//28 34//28 33//28
f 35//29 39//29 37//29 33//29
f 40//30 36//30 34//30 38//30
o Cube.004_Cube.007
v -0.165000 0.708000 0.191000
v -0.165000 0.725000 0.191000
v -0.165000 0.708000 -0.191000
v -0.165000 0.725000 -0.191000
v 0.165000 0.708000 0.191000
v 0.165000 0.725000 0.191000
v 0.165000 0.708000 -0.191000
v 0.165000 0.725000 -0.191000
vn -1.0000 0.0000 0.0000
vn 0.0000 0.0000 -1.0000
vn 1.0000 0.0000 0.0000
vn 0.0000 0.0000 1.0000
vn 0.0000 -1.0000 0.0000
vn 0.0000 1.0000 0.0000
usemtl None
s off
f 41//31 42//31 44//31 43//31
f 43//32 44//32 48//32 47//32
f 47//33 48//33 46//33 45//33
f 45//34 46//34 42//34 41//34
f 43//35 47//35 45//35 41//35
f 48//36 44//36 42//36 46//36
o Cube.005_Cube.008
v -0.165000 0.349750 0.191000
v -0.165000 0.366750 0.191000
v -0.165000 0.349750 -0.191000
v -0.165000 0.366750 -0.191000
v 0.165000 0.349750 0.191000
v 0.165000 0.366750 0.191000
v 0.165000 0.349750 -0.191000
v 0.165000 0.366750 -0.191000
vn -1.0000 0.0000 0.0000
vn 0.0000 0.0000 -1.0000
vn 1.0000 0.0000 0.0000
vn 0.0000 0.0000 1.0000
vn 0.0000 -1.0000 0.0000
vn 0.0000 1.0000 0.0000
usemtl None
s off
f 49//37 50//37 52//37 51//37
f 51//38 52//38 56//38 55//38
f 55//39 56//39 54//39 53//39
f 53//40 54//40 50//40 49//40
f 51//41 55//41 53//41 49//41
f 56//42 52//42 50//42 54//42
