# 3ds Max Wavefront OBJ Exporter v0.97b - (c)2007 guruware
# 创建的文件:25.08.2017 11:19:03

mtllib IKE170028.mtl

#
# object Generic_Models
#

v  -735.0000 45.0000 -195.0000
v  -735.0000 45.0000 195.0000
v  735.0000 45.0000 195.0000
v  735.0000 45.0000 -195.0000
v  735.0000 0.0000 195.0000
v  -735.0000 0.0000 195.0000
v  -735.0000 0.0000 -195.0000
v  735.0000 0.0000 -195.0000
# 8 vertices

vn 0.0000 1.0000 -0.0000
vn 0.0000 -1.0000 -0.0000
vn 0.0000 0.0000 -1.0000
vn -1.0000 0.0000 -0.0000
vn 0.0000 0.0000 1.0000
vn 1.0000 0.0000 -0.0000
# 6 vertex normals

vt 0.0000 1.0000 0.0000
vt 0.0000 0.0000 0.0000
vt 1.0000 0.0000 0.0000
vt 1.0000 1.0000 0.0000
# 4 texture coords

g Generic_Models
usemtl 01___Default
s 1
f 1/1/1 2/2/1 3/3/1 4/4/1 
f 5/2/2 6/3/2 7/4/2 8/1/2 
f 1/4/3 4/1/3 8/2/3 7/3/3 
f 2/4/4 1/1/4 7/2/4 6/3/4 
f 3/4/5 2/1/5 6/2/5 5/3/5 
f 4/4/6 3/1/6 5/2/6 8/3/6 
# 6 polygons

#
# object Generic_Models
#

v  -735.0000 1470.0000 -195.0000
v  -735.0000 1470.0000 195.0000
v  735.0000 1470.0000 195.0000
v  735.0000 1470.0000 -195.0000
v  735.0000 1424.9999 195.0000
v  -735.0000 1424.9999 195.0000
v  -735.0000 1424.9999 -195.0000
v  735.0000 1424.9999 -195.0000
# 8 vertices

vn 0.0000 1.0000 -0.0000
vn 0.0000 -1.0000 -0.0000
vn 0.0000 0.0000 -1.0000
vn -1.0000 0.0000 -0.0000
vn 0.0000 0.0000 1.0000
vn 1.0000 0.0000 -0.0000
# 6 vertex normals

vt 0.0000 1.0000 0.0000
vt 0.0000 0.0000 0.0000
vt 1.0000 0.0000 0.0000
vt 1.0000 1.0000 0.0000
# 4 texture coords

g Generic_Models
usemtl 01___Default
s 1
f 9/5/7 10/6/7 11/7/7 12/8/7 
f 13/6/8 14/7/8 15/8/8 16/5/8 
f 9/8/9 12/5/9 16/6/9 15/7/9 
f 14/7/10 10/8/10 9/5/10 15/6/10 
f 11/8/11 10/5/11 14/6/11 13/7/11 
f 16/7/12 12/8/12 11/5/12 13/6/12 
# 6 polygons

#
# object Generic_Models
#

v  -735.0000 1424.9998 -195.0000
v  -735.0000 1424.9998 195.0000
v  -690.0001 1424.9998 195.0000
v  -690.0001 1424.9998 -195.0000
v  -690.0001 44.9999 195.0000
v  -735.0000 44.9999 195.0000
v  -735.0000 44.9999 -195.0000
v  -690.0001 44.9999 -195.0000
# 8 vertices

vn 0.0000 1.0000 -0.0000
vn 0.0000 -1.0000 -0.0000
vn 0.0000 0.0000 -1.0000
vn -1.0000 0.0000 -0.0000
vn 0.0000 0.0000 1.0000
vn 1.0000 0.0000 -0.0000
# 6 vertex normals

vt 0.0000 1.0000 0.0000
vt 0.0000 0.0000 0.0000
vt 1.0000 0.0000 0.0000
vt 1.0000 1.0000 0.0000
vt -0.0000 1.0000 0.0000
vt -0.0000 0.0000 0.0000
# 6 texture coords

g Generic_Models
usemtl 01___Default
s 1
f 17/9/13 18/10/13 19/11/13 20/12/13 
f 21/10/14 22/11/14 23/12/14 24/9/14 
f 23/11/15 17/12/15 20/13/15 24/14/15 
f 22/11/16 18/12/16 17/9/16 23/10/16 
f 21/11/17 19/12/17 18/9/17 22/10/17 
f 19/9/18 21/10/18 24/11/18 20/12/18 
# 6 polygons

#
# object Generic_Models
#

v  690.0001 1424.9998 -195.0000
v  690.0001 1424.9998 195.0000
v  735.0000 1424.9998 195.0000
v  735.0000 1424.9998 -195.0000
v  735.0000 44.9999 195.0000
v  690.0001 44.9999 195.0000
v  690.0001 44.9999 -195.0000
v  735.0000 44.9999 -195.0000
# 8 vertices

vn 0.0000 1.0000 -0.0000
vn 0.0000 -1.0000 -0.0000
vn 0.0000 0.0000 -1.0000
vn -1.0000 0.0000 -0.0000
vn 0.0000 0.0000 1.0000
vn 1.0000 0.0000 -0.0000
# 6 vertex normals

vt 0.0000 1.0000 0.0000
vt 0.0000 0.0000 0.0000
vt 1.0000 0.0000 0.0000
vt 1.0000 1.0000 0.0000
vt -0.0000 1.0000 0.0000
vt -0.0000 0.0000 0.0000
# 6 texture coords

g Generic_Models
usemtl 01___Default
s 1
f 25/15/19 26/16/19 27/17/19 28/18/19 
f 29/16/20 30/17/20 31/18/20 32/15/20 
f 31/17/21 25/18/21 28/19/21 32/20/21 
f 25/15/22 31/16/22 30/17/22 26/18/22 
f 29/17/23 27/18/23 26/15/23 30/16/23 
f 28/18/24 27/15/24 29/16/24 32/17/24 
# 6 polygons

#
# object Generic_Models
#

v  -690.0001 395.0000 -195.0000
v  -690.0001 395.0000 195.0000
v  690.0001 395.0000 195.0000
v  690.0001 395.0000 -195.0000
v  690.0001 375.0000 195.0000
v  -690.0001 375.0000 195.0000
v  -690.0001 375.0000 -195.0000
v  690.0001 375.0000 -195.0000
# 8 vertices

vn 0.0000 1.0000 -0.0000
vn 0.0000 -1.0000 -0.0000
vn 0.0000 0.0000 -1.0000
vn -1.0000 0.0000 -0.0000
vn 0.0000 0.0000 1.0000
vn 1.0000 0.0000 -0.0000
# 6 vertex normals

vt 0.0000 1.0000 0.0000
vt 0.0000 0.0000 0.0000
vt 1.0000 0.0000 0.0000
vt 1.0000 1.0000 0.0000
# 4 texture coords

g Generic_Models
usemtl 01___Default
s 1
f 33/21/25 34/22/25 35/23/25 36/24/25 
f 37/22/26 38/23/26 39/24/26 40/21/26 
f 33/24/27 36/21/27 40/22/27 39/23/27 
f 33/21/28 39/22/28 38/23/28 34/24/28 
f 35/24/29 34/21/29 38/22/29 37/23/29 
f 35/21/30 37/22/30 40/23/30 36/24/30 
# 6 polygons

#
# object Generic_Models
#

v  -690.0001 745.0000 -195.0000
v  -690.0001 745.0000 195.0000
v  690.0001 745.0000 195.0000
v  690.0001 745.0000 -195.0000
v  690.0001 725.0000 195.0000
v  -690.0001 725.0000 195.0000
v  -690.0001 725.0000 -195.0000
v  690.0001 725.0000 -195.0000
# 8 vertices

vn 0.0000 1.0000 -0.0000
vn 0.0000 -1.0000 -0.0000
vn 0.0000 0.0000 -1.0000
vn -1.0000 0.0000 -0.0000
vn 0.0000 0.0000 1.0000
vn 1.0000 0.0000 -0.0000
# 6 vertex normals

vt 0.0000 1.0000 0.0000
vt 0.0000 0.0000 0.0000
vt 1.0000 0.0000 0.0000
vt 1.0000 1.0000 0.0000
# 4 texture coords

g Generic_Models
usemtl 01___Default
s 1
f 41/25/31 42/26/31 43/27/31 44/28/31 
f 45/26/32 46/27/32 47/28/32 48/25/32 
f 41/28/33 44/25/33 48/26/33 47/27/33 
f 41/25/34 47/26/34 46/27/34 42/28/34 
f 43/28/35 42/25/35 46/26/35 45/27/35 
f 43/25/36 45/26/36 48/27/36 44/28/36 
# 6 polygons

#
# object Generic_Models
#

v  690.0001 1095.0000 195.0000
v  690.0001 1095.0000 -195.0000
v  -690.0001 1095.0000 -195.0000
v  -690.0001 1095.0000 195.0000
v  690.0001 1075.0000 195.0000
v  -690.0001 1075.0000 195.0000
v  -690.0001 1075.0000 -195.0000
v  690.0001 1075.0000 -195.0000
# 8 vertices

vn 0.0000 1.0000 -0.0000
vn 0.0000 -1.0000 -0.0000
vn 0.0000 0.0000 -1.0000
vn -1.0000 0.0000 -0.0000
vn 0.0000 0.0000 1.0000
vn 1.0000 0.0000 -0.0000
# 6 vertex normals

vt 1.0000 0.0000 0.0000
vt 1.0000 1.0000 0.0000
vt 0.0000 1.0000 0.0000
vt 0.0000 0.0000 0.0000
# 4 texture coords

g Generic_Models
usemtl 01___Default
s 1
f 49/29/37 50/30/37 51/31/37 52/32/37 
f 53/32/38 54/29/38 55/30/38 56/31/38 
f 51/30/39 50/31/39 56/32/39 55/29/39 
f 51/31/40 55/32/40 54/29/40 52/30/40 
f 49/30/41 52/31/41 54/32/41 53/29/41 
f 49/31/42 53/32/42 56/29/42 50/30/42 
# 6 polygons

#
# object Generic_Models
#

v  -340.0000 1424.9999 195.0000
v  -340.0000 1424.9999 -195.0000
v  -360.0000 1424.9999 -195.0000
v  -360.0000 1424.9999 195.0000
v  10.0000 1424.9999 195.0000
v  10.0000 1424.9999 -195.0000
v  -10.0000 1424.9999 -195.0000
v  -10.0000 1424.9999 195.0000
v  360.0000 1424.9999 195.0000
v  360.0000 1424.9999 -195.0000
v  340.0000 1424.9999 -195.0000
v  340.0000 1424.9999 195.0000
v  -360.0000 1095.0000 195.0000
v  -360.0000 1095.0000 -195.0000
v  -340.0000 1095.0000 -195.0000
v  -340.0000 1095.0000 195.0000
v  -10.0000 1095.0000 195.0000
v  -10.0000 1095.0000 -195.0000
v  10.0000 1095.0000 -195.0000
v  10.0000 1095.0000 195.0000
v  340.0000 1095.0000 195.0000
v  340.0000 1095.0000 -195.0000
v  360.0000 1095.0000 -195.0000
v  360.0000 1095.0000 195.0000
# 24 vertices

vn 0.0000 1.0000 -0.0000
vn 0.0000 -1.0000 -0.0000
vn 0.0000 0.0000 -1.0000
vn -1.0000 0.0000 -0.0000
vn 0.0000 0.0000 1.0000
vn 1.0000 0.0000 -0.0000
# 6 vertex normals

vt 0.0278 0.0000 0.0000
vt 0.0278 1.0000 0.0000
vt 0.0000 1.0000 0.0000
vt 0.0000 0.0000 0.0000
vt 0.5139 0.0000 0.0000
vt 0.5139 1.0000 0.0000
vt 0.4861 1.0000 0.0000
vt 0.4861 0.0000 0.0000
vt 1.0000 0.0000 0.0000
vt 1.0000 1.0000 0.0000
vt 0.9722 1.0000 0.0000
vt 0.9722 0.0000 0.0000
# 12 texture coords

g Generic_Models
usemtl 01___Default
s 1
f 57/33/43 58/34/43 59/35/43 60/36/43 
f 61/37/43 62/38/43 63/39/43 64/40/43 
f 65/41/43 66/42/43 67/43/43 68/44/43 
f 69/41/44 70/42/44 71/43/44 72/44/44 
f 73/37/44 74/38/44 75/39/44 76/40/44 
f 77/33/44 78/34/44 79/35/44 80/36/44 
f 70/41/45 59/42/45 58/35/45 71/36/45 
f 59/35/46 70/36/46 69/41/46 60/42/46 
f 72/41/47 57/42/47 60/35/47 69/36/47 
f 57/35/48 72/36/48 71/41/48 58/42/48 
f 74/41/45 63/42/45 62/35/45 75/36/45 
f 63/35/46 74/36/46 73/41/46 64/42/46 
f 76/41/47 61/42/47 64/35/47 73/36/47 
f 61/35/48 76/36/48 75/41/48 62/42/48 
f 67/35/46 78/36/46 77/41/46 68/42/46 
f 80/41/47 65/42/47 68/35/47 77/36/47 
f 65/35/48 80/36/48 79/41/48 66/42/48 
f 78/41/45 67/42/45 66/35/45 79/36/45 
# 18 polygons

#
# object Generic_Models
#

v  -340.0000 1075.0000 195.0000
v  -340.0000 1075.0000 -195.0000
v  -360.0000 1075.0000 -195.0000
v  -360.0000 1075.0000 195.0000
v  10.0000 1075.0000 195.0000
v  10.0000 1075.0000 -195.0000
v  -10.0000 1075.0000 -195.0000
v  -10.0000 1075.0000 195.0000
v  360.0000 1075.0000 195.0000
v  360.0000 1075.0000 -195.0000
v  340.0000 1075.0000 -195.0000
v  340.0000 1075.0000 195.0000
v  -360.0000 745.0000 195.0000
v  -360.0000 745.0000 -195.0000
v  -340.0000 745.0000 -195.0000
v  -340.0000 745.0000 195.0000
v  -10.0000 745.0000 195.0000
v  -10.0000 745.0000 -195.0000
v  10.0000 745.0000 -195.0000
v  10.0000 745.0000 195.0000
v  340.0000 745.0000 195.0000
v  340.0000 745.0000 -195.0000
v  360.0000 745.0000 -195.0000
v  360.0000 745.0000 195.0000
# 24 vertices

vn 0.0000 1.0000 -0.0000
vn 0.0000 -1.0000 -0.0000
vn 0.0000 0.0000 -1.0000
vn -1.0000 0.0000 -0.0000
vn 0.0000 0.0000 1.0000
vn 1.0000 0.0000 -0.0000
# 6 vertex normals

vt 0.0278 0.0000 0.0000
vt 0.0278 1.0000 0.0000
vt 0.0000 1.0000 0.0000
vt 0.0000 0.0000 0.0000
vt 0.5139 0.0000 0.0000
vt 0.5139 1.0000 0.0000
vt 0.4861 1.0000 0.0000
vt 0.4861 0.0000 0.0000
vt 1.0000 0.0000 0.0000
vt 1.0000 1.0000 0.0000
vt 0.9722 1.0000 0.0000
vt 0.9722 0.0000 0.0000
# 12 texture coords

g Generic_Models
usemtl 01___Default
s 1
f 81/45/49 82/46/49 83/47/49 84/48/49 
f 85/49/49 86/50/49 87/51/49 88/52/49 
f 89/53/49 90/54/49 91/55/49 92/56/49 
f 93/53/50 94/54/50 95/55/50 96/56/50 
f 97/49/50 98/50/50 99/51/50 100/52/50 
f 101/45/50 102/46/50 103/47/50 104/48/50 
f 94/53/51 83/54/51 82/47/51 95/48/51 
f 83/47/52 94/48/52 93/53/52 84/54/52 
f 96/53/53 81/54/53 84/47/53 93/48/53 
f 81/47/54 96/48/54 95/53/54 82/54/54 
f 98/53/51 87/54/51 86/47/51 99/48/51 
f 87/47/52 98/48/52 97/53/52 88/54/52 
f 100/53/53 85/54/53 88/47/53 97/48/53 
f 85/47/54 100/48/54 99/53/54 86/54/54 
f 91/47/52 102/48/52 101/53/52 92/54/52 
f 104/53/53 89/54/53 92/47/53 101/48/53 
f 89/47/54 104/48/54 103/53/54 90/54/54 
f 102/53/51 91/54/51 90/47/51 103/48/51 
# 18 polygons

#
# object Generic_Models
#

v  -340.0000 725.0000 195.0000
v  -340.0000 725.0000 -195.0000
v  -360.0000 725.0000 -195.0000
v  -360.0000 725.0000 195.0000
v  10.0000 725.0000 195.0000
v  10.0000 725.0000 -195.0000
v  -10.0000 725.0000 -195.0000
v  -10.0000 725.0000 195.0000
v  360.0000 725.0000 195.0000
v  360.0000 725.0000 -195.0000
v  340.0000 725.0000 -195.0000
v  340.0000 725.0000 195.0000
v  -360.0000 395.0000 195.0000
v  -360.0000 395.0000 -195.0000
v  -340.0000 395.0000 -195.0000
v  -340.0000 395.0000 195.0000
v  -10.0000 395.0000 195.0000
v  -10.0000 395.0000 -195.0000
v  10.0000 395.0000 -195.0000
v  10.0000 395.0000 195.0000
v  340.0000 395.0000 195.0000
v  340.0000 395.0000 -195.0000
v  360.0000 395.0000 -195.0000
v  360.0000 395.0000 195.0000
# 24 vertices

vn 0.0000 1.0000 -0.0000
vn 0.0000 -1.0000 -0.0000
vn 0.0000 0.0000 -1.0000
vn -1.0000 0.0000 -0.0000
vn 0.0000 0.0000 1.0000
vn 1.0000 0.0000 -0.0000
# 6 vertex normals

vt 0.0278 0.0000 0.0000
vt 0.0278 1.0000 0.0000
vt 0.0000 1.0000 0.0000
vt 0.0000 0.0000 0.0000
vt 0.5139 0.0000 0.0000
vt 0.5139 1.0000 0.0000
vt 0.4861 1.0000 0.0000
vt 0.4861 0.0000 0.0000
vt 1.0000 0.0000 0.0000
vt 1.0000 1.0000 0.0000
vt 0.9722 1.0000 0.0000
vt 0.9722 0.0000 0.0000
# 12 texture coords

g Generic_Models
usemtl 01___Default
s 1
f 105/57/55 106/58/55 107/59/55 108/60/55 
f 109/61/55 110/62/55 111/63/55 112/64/55 
f 113/65/55 114/66/55 115/67/55 116/68/55 
f 117/65/56 118/66/56 119/67/56 120/68/56 
f 121/61/56 122/62/56 123/63/56 124/64/56 
f 125/57/56 126/58/56 127/59/56 128/60/56 
f 106/59/57 119/60/57 118/65/57 107/66/57 
f 107/59/58 118/60/58 117/65/58 108/66/58 
f 108/59/59 117/60/59 120/65/59 105/66/59 
f 105/59/60 120/60/60 119/65/60 106/66/60 
f 110/59/57 123/60/57 122/65/57 111/66/57 
f 111/59/58 122/60/58 121/65/58 112/66/58 
f 112/59/59 121/60/59 124/65/59 109/66/59 
f 109/59/60 124/60/60 123/65/60 110/66/60 
f 115/59/58 126/60/58 125/65/58 116/66/58 
f 116/59/59 125/60/59 128/65/59 113/66/59 
f 113/59/60 128/60/60 127/65/60 114/66/60 
f 114/59/57 127/60/57 126/65/57 115/66/57 
# 18 polygons

#
# object Generic_Models
#

v  -340.0000 375.0000 195.0000
v  -340.0000 375.0000 -195.0000
v  -360.0000 375.0000 -195.0000
v  -360.0000 375.0000 195.0000
v  10.0000 375.0000 195.0000
v  10.0000 375.0000 -195.0000
v  -10.0000 375.0000 -195.0000
v  -10.0000 375.0000 195.0000
v  360.0000 375.0000 195.0000
v  360.0000 375.0000 -195.0000
v  340.0000 375.0000 -195.0000
v  340.0000 375.0000 195.0000
v  -360.0000 45.0000 195.0000
v  -360.0000 45.0000 -195.0000
v  -340.0000 45.0000 -195.0000
v  -340.0000 45.0000 195.0000
v  -10.0000 45.0000 195.0000
v  -10.0000 45.0000 -195.0000
v  10.0000 45.0000 -195.0000
v  10.0000 45.0000 195.0000
v  340.0000 45.0000 195.0000
v  340.0000 45.0000 -195.0000
v  360.0000 45.0000 -195.0000
v  360.0000 45.0000 195.0000
# 24 vertices

vn 0.0000 1.0000 -0.0000
vn 0.0000 -1.0000 -0.0000
vn 0.0000 0.0000 -1.0000
vn -1.0000 0.0000 -0.0000
vn 0.0000 0.0000 1.0000
vn 1.0000 0.0000 -0.0000
# 6 vertex normals

vt 0.0278 0.0000 0.0000
vt 0.0278 1.0000 0.0000
vt 0.0000 1.0000 0.0000
vt 0.0000 0.0000 0.0000
vt 0.5139 0.0000 0.0000
vt 0.5139 1.0000 0.0000
vt 0.4861 1.0000 0.0000
vt 0.4861 0.0000 0.0000
vt 1.0000 0.0000 0.0000
vt 1.0000 1.0000 0.0000
vt 0.9722 1.0000 0.0000
vt 0.9722 0.0000 0.0000
# 12 texture coords

g Generic_Models
usemtl 01___Default
s 1
f 129/69/61 130/70/61 131/71/61 132/72/61 
f 133/73/61 134/74/61 135/75/61 136/76/61 
f 137/77/61 138/78/61 139/79/61 140/80/61 
f 141/77/62 142/78/62 143/79/62 144/80/62 
f 145/73/62 146/74/62 147/75/62 148/76/62 
f 149/69/62 150/70/62 151/71/62 152/72/62 
f 142/77/63 131/78/63 130/71/63 143/72/63 
f 131/71/64 142/72/64 141/77/64 132/78/64 
f 144/77/65 129/78/65 132/71/65 141/72/65 
f 129/71/66 144/72/66 143/77/66 130/78/66 
f 146/77/63 135/78/63 134/71/63 147/72/63 
f 135/71/64 146/72/64 145/77/64 136/78/64 
f 148/77/65 133/78/65 136/71/65 145/72/65 
f 133/71/66 148/72/66 147/77/66 134/78/66 
f 139/71/64 150/72/64 149/77/64 140/78/64 
f 152/77/65 137/78/65 140/71/65 149/72/65 
f 137/71/66 152/72/66 151/77/66 138/78/66 
f 150/77/63 139/78/63 138/71/63 151/72/63 
# 18 polygons

#
# object Generic_Models
#

v  -685.0000 1415.0000 -190.0000
v  -640.0001 1415.0000 -190.0000
v  -640.0001 1415.0000 -195.0000
v  -690.0001 1415.0000 -195.0000
v  -690.0001 1415.0000 -145.0000
v  -685.0000 1415.0000 -145.0000
v  -685.0000 1365.0000 -190.0000
v  -685.0000 1365.0000 -145.0000
v  -690.0001 1365.0000 -145.0000
v  -690.0001 1365.0000 -195.0000
v  -640.0001 1365.0000 -195.0000
v  -640.0001 1365.0000 -190.0000
# 12 vertices

vn 0.0000 1.0000 -0.0000
vn 0.0000 -1.0000 -0.0000
vn 0.0000 0.0000 -1.0000
vn -1.0000 0.0000 -0.0000
vn 0.0000 0.0000 1.0000
vn 1.0000 0.0000 -0.0000
# 6 vertex normals

vt 0.1000 0.9000 0.0000
vt 1.0000 0.9000 0.0000
vt 1.0000 1.0000 0.0000
vt 0.0000 1.0000 0.0000
vt 0.0000 0.0000 0.0000
vt 0.1000 0.0000 0.0000
vt 0.9000 0.9000 0.0000
vt 0.9000 0.0000 0.0000
vt 1.0000 0.0000 0.0000
vt 0.0000 0.9000 0.0000
# 10 texture coords

g Generic_Models
usemtl 01___Default
s 1
f 153/81/67 154/82/67 155/83/67 156/84/67 
f 157/85/67 158/86/67 153/81/67 156/84/67 
f 159/87/68 160/88/68 161/89/68 162/83/68 
f 163/84/68 164/90/68 159/87/68 162/83/68 
f 156/83/69 155/84/69 163/85/69 162/89/69 
f 156/84/70 162/85/70 161/89/70 157/83/70 
f 158/83/71 157/84/71 161/85/71 160/89/71 
f 158/84/72 160/85/72 159/89/72 153/83/72 
f 164/89/71 154/83/71 153/84/71 159/85/71 
f 154/84/72 164/85/72 163/89/72 155/83/72 
# 10 polygons

