{
    "asset" : {
        "generator" : "Khronos glTF Blender I/O v1.8.19",
        "version" : "2.0"
    },
    "scene" : 0,
    "scenes" : [
        {
            "name" : "Scene",
            "nodes" : [
                5
            ]
        }
    ],
    "nodes" : [
        {
            "mesh" : 0,
            "name" : "Box005_09 - Default_0",
            "translation" : [
                0,
                -1139.8560791015625,
                0
            ]
        },
        {
            "children" : [
                0
            ],
            "name" : "Object_4",
            "translation" : [
                219.9146728515625,
                2.922459680121392e-05,
                0.4814697504043579
            ]
        },
        {
            "children" : [
                1
            ],
            "name" : "Box005",
            "rotation" : [
                -1,
                0,
                0,
                1.5695823663008923e-07
            ],
            "scale" : [
                -0.27344298362731934,
                -0.27344298362731934,
                -101.87556457519531
            ],
            "translation" : [
                -0.7775993347167969,
                513.5789794921875,
                -5.4236907958984375
            ]
        },
        {
            "children" : [
                2
            ],
            "name" : "RootNode"
        },
        {
            "children" : [
                3
            ],
            "name" : "b4ee1bc9eae2450382779f876fc77a5d.fbx",
            "rotation" : [
                0.7071068286895752,
                0,
                0,
                0.7071068286895752
            ]
        },
        {
            "children" : [
                4
            ],
            "name" : "Sketchfab_model",
            "rotation" : [
                -0.7071068286895752,
                0,
                0,
                0.7071068286895752
            ],
            "scale" : [
                0.0017697055591270328,
                0.0017697055591270328,
                0.0017697055591270328
            ]
        }
    ],
    "materials" : [
        {
            "doubleSided" : true,
            "name" : "09_-_Default",
            "pbrMetallicRoughness" : {
                "baseColorFactor" : [
                    0.8666669726371765,
                    0.7019609808921814,
                    0,
                    1
                ],
                "metallicFactor" : 0,
                "roughnessFactor" : 0.32145580649375916
            }
        },
        {
            "doubleSided" : true,
            "name" : "03_-_Default",
            "pbrMetallicRoughness" : {
                "baseColorFactor" : [
                    0.2509799897670746,
                    0.19607800245285034,
                    0,
                    1
                ],
                "roughnessFactor" : 0
            }
        },
        {
            "doubleSided" : true,
            "name" : "02_-_Default",
            "pbrMetallicRoughness" : {
                "metallicFactor" : 0.23951981961727142,
                "roughnessFactor" : 0.1995045691728592
            }
        }
    ],
    "meshes" : [
        {
            "name" : "Box005_09 - Default_0",
            "primitives" : [
                {
                    "attributes" : {
                        "POSITION" : 0,
                        "NORMAL" : 1,
                        "TEXCOORD_0" : 2
                    },
                    "indices" : 3,
                    "material" : 0
                },
                {
                    "attributes" : {
                        "POSITION" : 4,
                        "NORMAL" : 5,
                        "TEXCOORD_0" : 6
                    },
                    "indices" : 7,
                    "material" : 1
                },
                {
                    "attributes" : {
                        "POSITION" : 8,
                        "NORMAL" : 9,
                        "TEXCOORD_0" : 10
                    },
                    "indices" : 11,
                    "material" : 2
                }
            ]
        }
    ],
    "accessors" : [
        {
            "bufferView" : 0,
            "componentType" : 5126,
            "count" : 1132,
            "max" : [
                136.3585205078125,
                135.05673217773438,
                0.5858548879623413
            ],
            "min" : [
                -652.5794677734375,
                -731.6060791015625,
                -1.5487945079803467
            ],
            "type" : "VEC3"
        },
        {
            "bufferView" : 1,
            "componentType" : 5126,
            "count" : 1132,
            "type" : "VEC3"
        },
        {
            "bufferView" : 2,
            "componentType" : 5126,
            "count" : 1132,
            "type" : "VEC2"
        },
        {
            "bufferView" : 3,
            "componentType" : 5123,
            "count" : 1320,
            "type" : "SCALAR"
        },
        {
            "bufferView" : 4,
            "componentType" : 5126,
            "count" : 1195,
            "max" : [
                136.35850524902344,
                89.60507202148438,
                0.5858546495437622
            ],
            "min" : [
                -652.5794067382812,
                -686.1543579101562,
                -1.548794150352478
            ],
            "type" : "VEC3"
        },
        {
            "bufferView" : 5,
            "componentType" : 5126,
            "count" : 1195,
            "type" : "VEC3"
        },
        {
            "bufferView" : 6,
            "componentType" : 5126,
            "count" : 1195,
            "type" : "VEC2"
        },
        {
            "bufferView" : 7,
            "componentType" : 5123,
            "count" : 2496,
            "type" : "SCALAR"
        },
        {
            "bufferView" : 8,
            "componentType" : 5126,
            "count" : 2609,
            "max" : [
                180.5574951171875,
                10.165321350097656,
                0.7293283939361572
            ],
            "min" : [
                -696.7783813476562,
                -606.7145385742188,
                -1.6922682523727417
            ],
            "type" : "VEC3"
        },
        {
            "bufferView" : 9,
            "componentType" : 5126,
            "count" : 2609,
            "type" : "VEC3"
        },
        {
            "bufferView" : 10,
            "componentType" : 5126,
            "count" : 2609,
            "type" : "VEC2"
        },
        {
            "bufferView" : 11,
            "componentType" : 5123,
            "count" : 2880,
            "type" : "SCALAR"
        }
    ],
    "bufferViews" : [
        {
            "buffer" : 0,
            "byteLength" : 13584,
            "byteOffset" : 0
        },
        {
            "buffer" : 0,
            "byteLength" : 13584,
            "byteOffset" : 13584
        },
        {
            "buffer" : 0,
            "byteLength" : 9056,
            "byteOffset" : 27168
        },
        {
            "buffer" : 0,
            "byteLength" : 2640,
            "byteOffset" : 36224
        },
        {
            "buffer" : 0,
            "byteLength" : 14340,
            "byteOffset" : 38864
        },
        {
            "buffer" : 0,
            "byteLength" : 14340,
            "byteOffset" : 53204
        },
        {
            "buffer" : 0,
            "byteLength" : 9560,
            "byteOffset" : 67544
        },
        {
            "buffer" : 0,
            "byteLength" : 4992,
            "byteOffset" : 77104
        },
        {
            "buffer" : 0,
            "byteLength" : 31308,
            "byteOffset" : 82096
        },
        {
            "buffer" : 0,
            "byteLength" : 31308,
            "byteOffset" : 113404
        },
        {
            "buffer" : 0,
            "byteLength" : 20872,
            "byteOffset" : 144712
        },
        {
            "buffer" : 0,
            "byteLength" : 5760,
            "byteOffset" : 165584
        }
    ],
    "buffers" : [
        {
            "byteLength" : 171344,
            "uri" : "data:application/octet-stream;base64,"
        }
    ]
}
