# Blender 3.1.2
# www.blender.org
mtllib mouse.mtl
o Cube.001
v -0.217853 0.522016 0.269213
v -0.217853 0.022360 0.269213
v -0.217709 0.022028 0.274607
v -0.217709 0.522348 0.274607
v -0.206991 0.002638 -0.214979
v -0.446248 0.002638 -0.214979
v -0.446248 0.541738 -0.214979
v -0.206991 0.541738 -0.214979
v -0.446248 0.541738 0.274607
v -0.206991 0.541738 0.274607
v -0.446248 0.002638 0.274607
v -0.435387 0.522016 0.269213
v -0.435531 0.522348 0.274607
v -0.435387 0.022360 0.269213
v -0.435531 0.022028 0.274607
v -0.426401 0.028301 0.269213
v -0.426401 0.516074 0.269213
v -0.226838 0.516074 0.269213
v -0.226838 0.028301 0.269213
v -0.229458 0.443772 0.269213
v -0.423781 0.443772 0.269213
v -0.423781 0.443772 0.274298
v -0.229458 0.443772 0.274298
v -0.229642 0.373907 0.269213
v -0.423598 0.373907 0.269213
v -0.423598 0.373907 0.274298
v -0.229642 0.373907 0.274298
v -0.423598 0.309832 0.269213
v -0.229642 0.309832 0.269213
v -0.229642 0.309832 0.274298
v -0.423598 0.309832 0.274298
v -0.229702 0.513210 0.269213
v -0.423537 0.513210 0.269213
v -0.423537 0.513210 0.274298
v -0.229702 0.513210 0.274298
v -0.226838 0.237347 0.269213
v -0.226838 0.307029 0.269213
v -0.426401 0.307029 0.269213
v -0.426401 0.237347 0.269213
v -0.226838 0.237347 0.275670
v -0.226838 0.028301 0.275670
v -0.426401 0.376711 0.269213
v -0.226838 0.376711 0.269213
v -0.423781 0.379331 0.269213
v -0.426401 0.446392 0.269213
v -0.229458 0.379331 0.269213
v -0.226838 0.446392 0.269213
v -0.423537 0.449256 0.269213
v -0.229702 0.449256 0.269213
v -0.426401 0.237347 0.275670
v -0.426401 0.028301 0.275670
v -0.229458 0.379331 0.274298
v -0.423781 0.379331 0.274298
v -0.229702 0.449256 0.274298
v -0.423537 0.449256 0.274298
v -0.243265 0.276015 0.269213
v -0.243265 0.276015 0.273728
v -0.243265 0.268361 0.273728
v -0.243265 0.268361 0.269213
v -0.248677 0.262949 0.269213
v -0.248677 0.262949 0.273728
v -0.256331 0.262949 0.273728
v -0.256331 0.262949 0.269213
v -0.261743 0.268361 0.269213
v -0.261743 0.268361 0.273728
v -0.261743 0.276015 0.273728
v -0.261743 0.276015 0.269213
v -0.256331 0.281427 0.269213
v -0.256331 0.281427 0.273728
v -0.248677 0.281427 0.273728
v -0.248677 0.281427 0.269213
v -0.252504 0.272188 0.273728
v -0.206991 0.002638 0.274607
vn -0.9996 -0.0000 0.0267
vn -0.0000 -0.0000 -1.0000
vn -0.0000 1.0000 -0.0000
vn -1.0000 -0.0000 -0.0000
vn -0.0000 -0.9981 0.0614
vn 0.9996 -0.0000 0.0267
vn -0.0000 0.9981 0.0614
vn -0.0000 -0.0000 1.0000
vn -0.0000 -1.0000 -0.0000
vn 1.0000 -0.0000 -0.0000
vn 0.9239 0.3827 -0.0000
vn 0.9239 -0.3827 -0.0000
vn 0.3827 -0.9239 -0.0000
vn -0.3827 -0.9239 -0.0000
vn -0.9239 -0.3827 -0.0000
vn -0.9239 0.3827 -0.0000
vn -0.3827 0.9239 -0.0000
vn 0.3827 0.9239 -0.0000
vt 0.373174 0.949706
vt 0.982858 0.948464
vt 0.710720 0.949703
vt 0.982858 0.792148
vt 0.978974 0.792044
vt 0.711083 0.955600
vt 0.372982 0.955601
vt 0.978975 0.948568
vt 0.834590 0.389909
vt 0.618521 0.274287
vt 0.795484 0.586315
vt 0.662662 0.389909
vt 0.618522 0.274288
vt 0.623556 0.586315
vt 0.662661 0.002515
vt 0.795484 0.586314
vt 0.618521 0.661682
vt 0.834590 0.002515
vt 0.623555 0.586314
vt 0.618521 0.661680
vt 0.795484 0.938127
vt 0.266708 0.661681
vt 0.965041 0.784342
vt 0.359883 0.962842
vt 0.623556 0.938128
vt 0.359879 0.962843
vt 0.965041 0.956270
vt 0.266708 0.661681
vt 0.266708 0.274288
vt 0.965040 0.956271
vt 0.724188 0.962841
vt 0.623556 0.938129
vt 0.373350 0.949701
vt 0.982858 0.792147
vt 0.978974 0.792043
vt 0.372988 0.955598
vt 0.710893 0.949704
vt 0.982858 0.948466
vt 0.978974 0.948569
vt 0.711085 0.955599
vt 0.706879 0.943634
vt 0.987128 0.942009
vt 0.800516 0.930635
vt 0.805156 0.935275
vt 0.377364 0.943631
vt 0.987128 0.798603
vt 0.554807 0.816519
vt 0.558842 0.812884
vt 0.377187 0.943636
vt 0.987128 0.942008
vt 0.558842 0.670050
vt 0.554799 0.666834
vt 0.706706 0.943632
vt 0.987128 0.798604
vt 0.805156 0.782590
vt 0.800516 0.787231
vt 0.556483 0.672537
vt 0.552864 0.668919
vt 0.556493 0.810813
vt 0.552874 0.814432
vt 0.552874 0.810813
vt 0.552864 0.672537
vt 0.556412 0.672515
vt 0.552786 0.668889
vt 0.556420 0.810838
vt 0.552794 0.814465
vt 0.552793 0.810838
vt 0.552786 0.672515
vt 0.503471 0.810841
vt 0.507097 0.814467
vt 0.503463 0.672518
vt 0.507090 0.668891
vt 0.507090 0.672518
vt 0.507097 0.810841
vt 0.556385 0.672508
vt 0.552755 0.668878
vt 0.556392 0.810845
vt 0.552763 0.814475
vt 0.552763 0.810846
vt 0.552755 0.672508
vt 0.563971 0.666833
vt 0.955374 0.782590
vt 0.960015 0.787231
vt 0.614044 0.666833
vt 0.505090 0.666892
vt 0.501014 0.670525
vt 0.614044 0.810238
vt 0.505098 0.816467
vt 0.501014 0.813298
vt 0.563971 0.810238
vt 0.960015 0.930635
vt 0.955375 0.935276
vt 0.955374 0.787231
vt 0.805156 0.787231
vt 0.554793 0.816464
vt 0.558869 0.812831
vt 0.505155 0.816300
vt 0.500944 0.813273
vt 0.554785 0.666889
vt 0.558869 0.670058
vt 0.505144 0.667058
vt 0.500944 0.670686
vt 0.503400 0.810817
vt 0.507019 0.814435
vt 0.554739 0.816296
vt 0.558939 0.812668
vt 0.505076 0.816522
vt 0.501032 0.813305
vt 0.503390 0.672541
vt 0.507008 0.668922
vt 0.554728 0.667054
vt 0.558939 0.670081
vt 0.505068 0.666837
vt 0.501032 0.670472
vt 0.503490 0.810848
vt 0.507120 0.814477
vt 0.503483 0.672510
vt 0.507112 0.668881
vt 0.955375 0.930635
vt 0.805156 0.930635
vt 0.507008 0.672541
vt 0.507019 0.810817
vt 0.507112 0.672510
vt 0.507119 0.810848
vt 0.316056 0.893561
vt 0.312812 0.893561
vt 0.303423 0.886450
vt 0.312812 0.888061
vt 0.308923 0.886450
vt 0.316056 0.888061
vt 0.316056 0.882561
vt 0.312812 0.882561
vt 0.312812 0.921060
vt 0.312812 0.877061
vt 0.316056 0.877061
vt 0.316056 0.921060
vt 0.316056 0.915560
vt 0.312812 0.915560
vt 0.308923 0.873172
vt 0.312812 0.910061
vt 0.303423 0.873172
vt 0.316056 0.910061
vt 0.316056 0.904561
vt 0.312812 0.904561
vt 0.299534 0.877061
vt 0.312812 0.899061
vt 0.299534 0.882561
vt 0.316056 0.899061
vt 0.306173 0.879811
vt 0.965040 0.784343
vt 0.724188 0.962843
vt 0.266708 0.274287
vt 0.795484 0.938128
s 1
usemtl None
f 1/1/1 2/3/1 3/6/1 4/7/1
f 5/9/2 6/12/2 7/15/2 8/18/2
f 8/19/3 7/16/3 9/21/3 10/25/3
f 11/29/4 9/22/4 7/17/4 6/13/4
f 12/34/5 1/2/5 4/8/5 13/35/5
f 14/37/6 12/33/6 13/36/6 15/40/6
f 2/4/7 14/38/7 15/39/7 3/5/7
f 16/41/8 17/45/8 12/33/8 14/37/8
f 18/49/8 19/53/8 2/3/8 1/1/8
f 19/54/8 16/42/8 14/38/8 2/4/8
f 17/46/8 18/50/8 1/2/8 12/34/8
f 20/57/3 21/59/3 22/61/3 23/62/3
f 24/63/3 25/65/3 26/67/3 27/68/3
f 28/69/9 29/71/9 30/73/9 31/74/9
f 32/75/3 33/77/3 34/79/3 35/80/3
f 36/81/8 37/84/8 38/87/8 39/90/8
f 19/55/10 36/82/10 40/93/10 41/94/10
f 28/70/8 25/66/8 42/95/8 38/88/8
f 24/64/8 29/72/8 37/85/8 43/99/8
f 29/71/8 28/69/8 38/89/8 37/86/8
f 25/65/8 24/63/8 43/100/8 42/96/8
f 44/104/8 21/60/8 45/105/8 42/97/8
f 20/58/8 46/110/8 43/101/8 47/111/8
f 46/109/8 44/103/8 42/98/8 43/102/8
f 21/59/8 20/57/8 47/112/8 45/106/8
f 48/116/8 33/78/8 17/47/8 45/107/8
f 33/77/8 32/75/8 18/51/8 17/48/8
f 32/76/8 49/118/8 47/113/8 18/52/8
f 49/117/8 48/115/8 45/108/8 47/114/8
f 41/94/8 40/93/8 50/119/8 51/120/8
f 44/103/9 46/109/9 52/121/9 53/122/9
f 25/66/4 28/70/4 31/74/4 26/67/4
f 16/43/9 19/56/9 41/94/9 51/120/9
f 21/60/4 44/104/4 53/122/4 22/61/4
f 48/115/9 49/117/9 54/123/9 55/124/9
f 36/83/3 39/91/3 50/119/3 40/93/3
f 46/110/10 20/58/10 23/62/10 52/121/10
f 29/72/10 24/64/10 27/68/10 30/73/10
f 49/118/10 32/76/10 35/80/10 54/123/10
f 39/92/4 16/44/4 51/120/4 50/119/4
f 26/67/8 31/74/8 30/73/8 27/68/8
f 33/78/4 48/116/4 55/124/4 34/79/4
f 56/125/11 57/126/11 58/128/12 59/130/12
f 60/131/13 61/132/13 62/134/14 63/135/14
f 64/137/15 65/138/15 66/140/16 67/142/16
f 68/143/17 69/144/17 70/146/18 71/148/18
f 71/148/18 70/146/18 57/126/11 56/125/11
f 59/130/12 58/128/12 61/132/13 60/131/13
f 63/136/14 62/133/14 65/138/15 64/137/15
f 67/142/16 66/140/16 69/144/17 68/143/17
f 70/147/8 72/149/8 57/127/8
f 58/129/8 72/149/8 61/132/8
f 62/134/8 72/149/8 65/139/8
f 66/141/8 72/149/8 69/145/8
f 57/127/8 72/149/8 58/129/8
f 61/132/8 72/149/8 62/134/8
f 65/139/8 72/149/8 66/141/8
f 69/145/8 72/149/8 70/147/8
f 22/61/8 53/122/8 52/121/8 23/62/8
f 34/79/8 55/124/8 54/123/8 35/80/8
f 11/30/8 73/150/8 3/5/8 15/39/8
f 73/151/8 10/26/8 4/7/8 3/6/8
f 13/35/8 4/8/8 10/27/8 9/23/8
f 9/24/8 11/31/8 15/40/8 13/36/8
f 8/20/10 10/28/10 73/152/10 5/10/10
f 6/14/9 5/11/9 73/153/9 11/32/9
