# Blender v3.1.2 OBJ File: 'untitled.blend'
# www.blender.org
mtllib tv_bench2.mtl
o IKEA_LACK_Table_90x26x45_Cube.002
v 0.649981 -0.138750 -2.125884
v 0.649981 1.860902 -2.125884
v 0.649981 2.111250 -2.125884
v 0.650554 2.111249 2.374116
v 0.650554 1.860862 2.374116
v 0.650554 -0.138750 2.374116
v 0.650554 -0.138750 2.124279
v 0.650554 1.860948 2.124279
v 0.650268 1.860948 -1.875933
v 0.649981 -0.138750 -1.876047
v -0.649973 -0.138750 2.124279
v -0.399973 -0.138750 2.124279
v -0.399973 -0.138750 2.374116
v -0.649973 -0.138750 2.374116
v -0.649973 1.860948 2.124279
v -0.399973 1.860948 2.124279
v -0.399973 1.860948 2.374116
v -0.650547 2.111250 -2.125884
v -0.649973 2.111249 2.374116
v 0.399265 1.860948 2.374116
v 0.399265 -0.138750 2.374116
v -0.649973 1.860950 2.374116
v -0.650260 1.860948 -1.875933
v -0.399615 1.860948 -1.875933
v -0.399257 1.860948 -2.125884
v 0.399981 1.860948 -2.125884
v 0.399623 1.860948 -1.875933
v 0.399265 1.860948 2.124279
v 0.399265 -0.138750 2.124279
v 0.399981 -0.138750 -1.876047
v 0.399981 -0.138750 -2.125884
v -0.399257 -0.138750 -2.125884
v -0.650547 -0.138750 -2.125884
v -0.650547 1.860920 -2.125884
v -0.650547 -0.138750 -1.876047
v -0.399257 -0.138750 -1.876047
v 0.624453 1.061245 -1.875723
v -0.624996 1.061245 -1.875723
v -0.624446 1.061245 2.124278
v 0.625004 1.061245 2.124278
v -0.624996 0.961268 -1.875723
v -0.624446 0.961280 2.124278
v 0.625004 0.961245 2.124278
v 0.624453 0.961260 -1.875723
vt 0.375000 0.500000
vt 0.500000 0.500000
vt 0.625000 0.500000
vt 0.375000 0.750000
vt 0.361094 0.750000
vt 0.347189 0.750000
vt 0.347189 0.500000
vt 0.347189 0.500000
vt 0.597189 0.750000
vt 0.375000 0.750000
vt 0.375000 0.750000
vt 0.625000 0.750000
vt 0.625000 1.000000
vt 0.375000 1.000000
vt 0.625000 0.500000
vt 0.847189 0.500000
vt 0.847189 0.750000
vt 0.125000 0.500000
vt 0.347189 0.500000
vt 0.347189 0.750000
vt 0.125000 0.750000
vt 0.625000 0.250000
vt 0.375000 0.250000
vt 0.625000 0.250000
vt 0.375000 0.250000
vt 0.597189 0.250000
vt 0.597189 0.250000
vt 0.597189 0.250000
vt 0.611094 0.250000
vt 0.625000 0.250000
vt 0.625000 0.500000
vt 0.500000 0.500000
vt 0.375000 0.500000
vt 0.375000 0.250000
vt 0.597189 0.250000
vt 0.847189 0.500000
vt 0.347189 0.500000
vt 0.347189 0.750000
vt 0.347189 0.750000
vt 0.847189 0.750000
vt 0.847189 0.750000
vt 0.847189 0.750000
vt 0.347189 0.500000
vt 0.347189 0.750000
vt 0.347189 0.750000
vt 0.347189 0.500000
vt 0.847189 0.750000
vt 0.847189 0.750000
vt 0.847189 0.750000
vt 0.625000 0.750000
vt 0.625000 1.000000
vt 0.375000 1.000000
vt 0.625000 0.500000
vt 0.847189 0.500000
vt 0.125000 0.500000
vt 0.347189 0.500000
vt 0.125000 0.750000
vt 0.597189 0.250000
vt 0.597189 0.250000
vt 0.597189 0.250000
vt 0.611094 0.250000
vt 0.625000 0.250000
vt 0.375000 0.250000
vt 0.597189 0.250000
vt 0.375000 0.750000
vt 0.361094 0.750000
vt 0.347189 0.750000
vt 0.347189 0.500000
vt 0.597189 0.750000
vt 0.597189 0.750000
vt 0.347189 0.750000
vt 0.347189 0.500000
vt 0.847189 0.750000
vt 0.847189 0.750000
vt 0.847189 0.750000
vt 0.847189 0.750000
vt 0.625000 0.250000
vt 0.375000 0.250000
vt 0.625000 0.250000
vt 0.375000 0.250000
vt 0.000000 0.000000
vt 0.000000 0.000000
vt 0.000000 0.000000
vt 0.000000 0.000000
vn 1.0000 0.0003 -0.0002
vn 0.0000 -1.0000 -0.0000
vn 0.0000 0.0000 -1.0000
vn 1.0000 0.0000 0.0000
vn 0.0000 1.0000 0.0000
vn 0.0000 -0.0000 1.0000
vn -1.0000 0.0000 0.0000
vn 0.0000 -0.0001 1.0000
vn -1.0000 -0.0001 -0.0007
vn -1.0000 -0.0003 0.0002
vn 1.0000 0.0001 0.0007
vn -1.0000 0.0000 0.0001
vn 1.0000 0.0000 -0.0001
usemtl (null)
s 1
f 1/1/1 2/2/1 3/3/1 4/4/1 5/5/1 6/6/1 7/7/1 8/8/1 9/9/1 10/10/1
f 11/11/2 12/12/2 13/13/2 14/14/2
f 11/15/3 15/16/3 16/17/3 12/12/3
f 12/18/4 16/19/4 17/20/4 13/21/4
f 3/22/5 18/23/5 19/24/5 4/25/5
f 20/26/6 21/27/6 6/28/6 5/29/6 4/30/6 19/31/6 22/32/6 14/33/6 13/34/6 17/35/6
f 16/17/2 15/16/2 23/36/2 24/37/2 25/38/2 26/39/2 27/40/2 9/41/2 8/42/2 28/43/2 20/44/2 17/20/2
f 21/45/2 29/46/2 7/7/2 6/6/2
f 28/47/3 8/42/3 7/48/3 29/49/3
f 20/44/7 28/43/7 29/46/7 21/45/7
f 10/10/2 30/50/2 31/51/2 1/52/2
f 10/53/8 9/54/8 27/40/8 30/50/8
f 30/55/9 27/56/9 26/39/9 31/57/9
f 25/58/3 32/59/3 33/60/3 34/61/3 18/62/3 3/3/3 2/2/3 1/1/3 31/63/3 26/64/3
f 19/31/10 18/65/10 34/66/10 33/67/10 35/68/10 23/69/10 15/70/10 11/11/10 14/33/10 22/32/10
f 32/71/2 36/72/2 35/68/2 33/67/2
f 24/73/8 23/74/8 35/75/8 36/76/8
f 25/38/11 24/37/11 36/72/11 32/71/11
f 37/77/5 38/78/5 39/79/5 40/80/5
f 41/81/12 42/82/12 39/79/12 38/78/12
f 43/83/6 40/80/6 39/79/6 42/82/6
f 43/83/2 42/82/2 41/81/2 44/84/2
f 44/84/3 41/81/3 38/78/3 37/77/3
f 44/84/13 37/77/13 40/80/13 43/83/13
